<?xml version="1.0" encoding="UTF-8"?>
<svg id="Capa_2" data-name="Capa 2" xmlns="http://www.w3.org/2000/svg" viewBox="0 0 230.43 116.29">
  <defs>
    <style>
      .cls-1 {
        fill: #0511f2;
      }

      .cls-2 {
        fill: #f2f2f0;
        font-family: Gorilla-Black, Gorilla;
        font-size: 60px;
        font-weight: 800;
      }

      .cls-3 {
        fill: #f3f3f2;
      }
    </style>
  </defs>
  <g id="Capa_1-2" data-name="Capa 1">
    <g>
      <rect class="cls-1" x="5" y="3.33" width="220.43" height="110.3"/>
      <g>
        <path class="cls-3" d="M227.87,112.86c-.04.98.38.63.46.77-.09-1.63-.57-.73-.46-.77Z"/>
        <polygon class="cls-3" points="226.91 96.74 227.08 97.02 226.67 94.64 226.91 96.74"/>
        <path class="cls-3" d="M226.92,81.66c-.71,1.43.12,5.46-.14,8.15l-.16.44.57,1.21c-.09-3.26-.47-7.5-.27-9.8Z"/>
        <path class="cls-3" d="M228.47,73.62c-.28.5-.24-1.74-.09,1.87.03-.18.05-.23.07-.34,0-.33,0-.77.02-1.53Z"/>
        <path class="cls-3" d="M228.45,75.16c.02,1.59.23-1.04,0,0h0Z"/>
        <path class="cls-3" d="M228.29,67.83l.25,2.09c.16-.44.2-2.3.32-1.61-.14-2.15-.3-1.7-.57-.48Z"/>
        <path class="cls-3" d="M227.77,65.84l.11,1.08c.07-.19.09-.48-.11-1.08Z"/>
        <path class="cls-3" d="M228.1,69.22l-.22-2.3c-.12.3-.35.33.08,1.06-.21-.19,0,.27.14,1.24Z"/>
        <path class="cls-3" d="M227.99,70.53c-.16,1.17-.25,2.69-.5.59.1,4,.6,3.41.5-.59Z"/>
        <path class="cls-3" d="M226.18,80.89l-.21,1.57.24,1.36c-.12-.68.19-3.02-.03-2.92Z"/>
        <path class="cls-3" d="M228.66,54.8c-.15-.13-.4.7-.6.86l.17,1.54c.1-.79.2-2.3.42-2.4Z"/>
        <path class="cls-3" d="M228.06,55.66l-.26-2.31c-.03,2.06.09,2.44.26,2.31Z"/>
        <polygon class="cls-3" points="226.98 65.47 227.52 69.27 226.97 64.74 226.98 65.47"/>
        <polygon class="cls-3" points="228.68 45.97 229.03 47.28 228.5 44.95 228.68 45.97"/>
        <path class="cls-3" d="M228.62,40.12c.29.97.49-1.33.67-.3-.05-1.59-.3-2.95-.53-4.17.13,1.3.09,2.68-.15,4.48Z"/>
        <path class="cls-3" d="M228.43,33.59c.07.65.19,1.32.33,2.05-.07-.69-.16-1.37-.33-2.05Z"/>
        <path class="cls-3" d="M227.87,49.41c.09-.18.33-.52.43-1.82l-.43.91c0,.28,0,.59,0,.91Z"/>
        <path class="cls-3" d="M227.87,48.53v-.03c.03-.99.03-1.67.04-1.96,0,.25-.02.85-.04,2Z"/>
        <path class="cls-3" d="M227.87,49.64c0-.08,0-.15,0-.23-.04.09-.06.14,0,.23Z"/>
        <path class="cls-3" d="M227.36,59.41c-.24-1.36-.5-4.19-.86-1.45.29.97.5-.59.86,1.45Z"/>
        <path class="cls-3" d="M227.34,50.77l-.1,2.45c.11-.05.28-.49.4.18l-.3-2.64Z"/>
        <polygon class="cls-3" points="227.2 49.57 227.34 50.77 227.37 49.86 227.2 49.57"/>
        <path class="cls-3" d="M228.03,37.79c-.19-1.06-.2-2.22-.23-3.53-.08,1.4-.13,2.86-.13,4.24.13.19.38.8.36-.7Z"/>
        <path class="cls-3" d="M227.92,43.01c0-.07-.02-.17-.02-.24-.04.14-.05.26.02.24Z"/>
        <path class="cls-3" d="M227.81,21.36c-.03.07-.05.13-.08.21.03.02.05.03.07.05v-.26Z"/>
        <path class="cls-3" d="M227.6,38.73c-.08,1.06.02,1.69.15,2.29-.04-.79-.07-1.63-.07-2.52-.06-.09-.1-.1-.08.24Z"/>
        <path class="cls-3" d="M228.23,29.99c-.09.55-.16,1.17-.23,1.83.14-.54.35-1.63.23-1.83Z"/>
        <path class="cls-3" d="M228.01,42.42c0,.05.01.1.02.16.09-.35.05-.3-.02-.16Z"/>
        <path class="cls-3" d="M228.01,42.42c-.06-.54-.17-.97-.26-1.4.03.64.08,1.24.14,1.75.03-.13.08-.26.12-.36Z"/>
        <path class="cls-3" d="M225.06,17.45c.4.19.76,2.96.34,5.36.3,2.36,1.6.82,2.33-1.24-.17-.07-.33-.07-.57-2.5-.22.85-.51,5.38-.86,3.34-.2-3.21.14-2.63.35-4.2-.49,1.33-.72-4.09-1.44-3.39l.26,2.82c-.11.05-.29-.97-.4-.19Z"/>
        <path class="cls-3" d="M227.69,26.19l.05,1c.07-1.14.23-1.95.54-3.45-.19-1.66-.34-2.01-.47-2.12l-.06,4.92-.06-.34Z"/>
        <path class="cls-3" d="M227.74,31.67c-.43-.78-.61-3.18-1.08-1.71.03,2.93.36,2.05.55,3.8-.11-4.73.24,1.36.48-2.06.07.93.1,1.76.11,2.55.05-.85.12-1.67.2-2.44-.01.04-.02.07-.03.11v.02s0,0,0,0c-.05.2-.09.27-.06.04,0-.02,0-.07,0-.1-.06-.03-.11-.12-.16-.21.09-1.37.11-.22.16.21.02.02.04.05.06.06v-.02s-.23-4.74-.23-4.74c-.06,1-.05,2.26,0,4.48Z"/>
        <path class="cls-3" d="M225.58,55.44c.04-.15.07-.14.1-.15-.05-.31-.09-.42-.1.15Z"/>
        <path class="cls-3" d="M225.84,53.49c.06.34.23.63.19,1.75-.13.97-.21,0-.35.05.11.67.31,2.36.52.25l-.06-.33c.15-1.91.69-4.36.74-4.02-.39.56-.66,1.05-1.04,2.32Z"/>
        <path class="cls-3" d="M226.68,42.44l-.21-3.94-.37,2.01.22-.1c-.09,2.24.19,1.76.36,2.04Z"/>
        <polygon class="cls-3" points="228.02 20.91 228.48 21.43 227.83 19.16 228.02 20.91"/>
        <polygon class="cls-3" points="227.97 15.79 228.36 15.98 228.12 14.62 227.97 15.79"/>
        <path class="cls-3" d="M7.37,59.61l.11,1.16c-.03-.55-.07-.9-.11-1.16Z"/>
        <path class="cls-3" d="M7.4,51.22l-.19-.21c.11.39.19.55.19.21Z"/>
        <path class="cls-3" d="M112.04.83c-1.69-.37-3.57-.94-3.37-.5l.52.43c1.18-.08,2.08-.03,2.85.06Z"/>
        <path class="cls-3" d="M25.84,3.43c.16.04.33.09.49.13.41-.15.79-.29,1.14-.42-.49.09-1.05.18-1.63.28Z"/>
        <path class="cls-3" d="M24.65,5.22l-2.22-.28c.5.1,1.22.19,2.22.28Z"/>
        <path class="cls-3" d="M7.83,105.42l.44,1.35c0-2.12-.23-1.18-.44-1.35Z"/>
        <path class="cls-3" d="M185.41.95c-1.46-.17-2.62-.24-3.63-.26,1.75.25,3.17.62,3.63.26Z"/>
        <path class="cls-3" d="M2.77,56.31c.08.71.17,1.01.26.99-.07-.73-.16-1.14-.26-.99Z"/>
        <path class="cls-3" d="M177.57.69c.26.03.51.07.77.1,1.06-.07,2.14-.13,3.44-.1-1.3-.19-2.78-.3-4.21,0Z"/>
        <path class="cls-3" d="M162.95,111.15c.12.02.27.03.38.05.04-.06-.13-.06-.38-.05Z"/>
        <path class="cls-3" d="M211.36,115.53c-.48.03-1.25.03-1.99.03.36.03.96.03,1.99-.03Z"/>
        <path class="cls-3" d="M217.27.6c1.09-.03.17-.05,0,0h0Z"/>
        <path class="cls-3" d="M222.82,2.32c-.3.05-.53.11-.58.21.12-.1.32-.17.58-.21Z"/>
        <path class="cls-3" d="M166.74,3.39s-.06,0-.09,0c.32.08.27.07.09,0Z"/>
        <path class="cls-3" d="M218.91.8c-.41-.05-.88-.1-1.39-.13.22.03.65.08,1.39.13Z"/>
        <path class="cls-3" d="M218.69.59c.37.02.67.03.95.04.14-.07.02-.12-.95-.04Z"/>
        <path class="cls-3" d="M215.76.62c.62,0,1.2.01,1.76.04-.21-.03-.3-.05-.25-.07-.32,0-.77.01-1.51.02Z"/>
        <path class="cls-3" d="M73.92,112.32c.07.01.15.03.23.04,1.1-.18.62-.15-.23-.04Z"/>
        <path class="cls-3" d="M83.75,5.34c.05,0,.08-.01.12-.02-.05,0-.11-.01-.16-.02l.04.04Z"/>
        <path class="cls-3" d="M79.85,5.66c1.66-.54,2.61-.47,3.87-.36l-1.29-1.25-2.58,1.61Z"/>
        <path class="cls-3" d="M7.5,79.7l.39-2.74c.64,3.31.42,5.7.97,3.13-1.36-.39-.14-10.66-1.5-11.04l.29-1.81c-.01.52.07.6.05,1.11.65-3.51-.98-2.61-.79-7.14.1-1.58.3-2.68.46-1.6l-.34-3.52c.03-1.02.26-.77.24.25l-.11-5.36.04.04c-.21-.77-.54-2.5-.68-3.35.19-1.36.14.68.31.33l-.33-2.97c.35-1.21.69,1.25.64,3.3,1.36-2.77-.34-2.46.45-8.45l.17,2.8c.77-1.81.49-4,.97-7.17-.25.75-1.21,6.35-1.55,3.12.1-.91.15-2.11-.12-3.84.48-.02.36-1.71.34-3.84l.64.14c-.18-2.3-.51-2.12-.8-3.47.06-2.56.56-3.09.98-3.69.1-4.1-.79,2.83-.91-2.02.24-3.41-.02-5.8-.4-9.88.22-2.39.39.42.57-.44l-.51-2.12c.01-.52.17-.35.25-.27-.1-.89-.26-.93-.42-1.09-.08-.08-.16-.2-.22-.46-.03-.13-.07-.33-.1-.52-.03-.14-.05-.32-.08-.54-.31-.27-.15-1.12.06-1.81.73.13,1.41.29,1.99.35.16.02.26.03.46.03.27,0,.54,0,.81-.01.53-.03,1.05-.09,1.54-.2.85.18-.41.39-.15.64,4.76-.52,4.08-.38,7.99-1.09l3.33.42c-2.45-.48.68-1.05,3.42-1.52-.87-.23-1.61-.43-2.11-.53l4.37-.34c.53.11.09.32-.63.59.3-.06.58-.11.8-.15,1.56.24.75.61-.37.96-.53-.13-1.06-.27-1.57-.39-1.08.39-2.09.82-1.86,1.19.28-.07.83-.14,1.43-.17-.28.11-.46.2-.33.26.15.07.6-.07,1.32-.24l.99.71.24-.28,5.71.45c4.09-.72,7.64-1.77,14.13-2.07-1.61.52-.35.85-.43,1.47-1.77-.66-5.03.28-8.39.15,1.75.07,1.37.36.92.47l6-.6c-.14.51,1.27.38,2.84.59-1.18-1,4.47-.67,6.91-.97.15.34-.43.68-3.41.6,3.29.75,4.24-1.18,7.47-.54-.73,0-1.12-.04-1.41.13,1.7-.3,5.85-.06,4.87.23h-.73c4.83.13,14.69.01,15.41-.84.05.11-.63,1.03-.92,1.2l8.61-2.86c-.76.73,2.15,2.47-1.85,2.88,1.15.1,2.57.23,4.99-.03-.78-.1-1.95-1.06-.88-1.12,2.94.81,2.04.43,5.67,1.13-1.18-.16.13-1.3,1.99-1.27-.29.17.15,1.13-.52,1.25l4.62-1.12c-1.15.2-.2.95.83,1.27-.48-.22,4,.02,5.23-.09l-1.96-.26c5.22.17,5.16-1.58,10.33-1.52-.63.23-1.55,1.43,1.09,1.57,1.21-.58,5.34-2.77,9.92-3.21l.88.33,3.51-.38c-2.19.87-8.33,2.69-11.68,3.4,1.95.26.54.39,3.47.36,1.03.31-1.59.47-2.45.49l6.81.2c-.3-.67,5.21-.67,4.95-1.23l-7.4.7c-.3-.67,4.28-1.91,9.1-1.79,1.23.27-.92,1.2-.82,1.42.63-.23,4.58-.44,5.02-.28l-2.05.36c2.69.25,4.38-.89,7.61-.25,1.11.04,3.33.87,3.52.47-1.82-.77-2.17-3.14-.96-3.72.39.05,5.85.73,7.12,1.11,1.83.6-2.75,1.43-1.19,1.95.07-.18,1.08-.41,1.5-.48,1.17.16-.48.57,2.06.49.42-.68,5.17.06,1.2-.58,2.49-.19,2.64.14,5.56.11-.93-.44,2.62-1.5,5.11-1.69-.15.17.41.4.68.5,5.1.06,7.83.37,12.59.38.44.17,2.73.36,1.75.66.68-.12,1.31-.35,2.78-.37,2.84.59-3.27.09-1.11.8.18-.4,3.79-.55,5.88-.79-.64-.61-4.82-.12-6.92.13,0-.84,3.63-1.73,8.6-2.12,3.95-.21,1.71.55,2.4.43,7.42.15,6.32-1.47,12.48-.86,2.44.54.11,1.07.65,1.46-3.22.2-4.94-.34-7.12-.32l2.68.25c-1.02.18-3.17.31-4.34.16,2.05.48,12.53.09,18.25.54,1.02-.18,2.77-.37,1.94-.58l-1.81.08c-1.66-.43,3.41-.6,1.12-.8,1.21-.15,2.5-.35,3.91-.48.35-.03.71-.05,1.08-.08.51-.01,1.04-.03,1.58-.04,1.08-.02,2.22,0,3.34.06.05.09.09.19.12.28l-.34.76c.04-.06.08-.25.12-.55-.67-.12-2.55-.2-3.53-.06.82-.12,2.18.02,3.44.16-.17,2.01-.32,3.77.13,4.82.14-.95.28-2.07.42-3.24.09.82.18,1.7.28,2.61.05.54.1.84.15,1.19.05.35.09.7.14,1.06.18,1.44.29,2.95.19,4.46.61-1.38-.07-.7.64-2.85-.44.93-.43-1-.43-2.8,0-.61,0-1.21,0-1.73,0-.62-.02-1.15-.05-1.5-.06-.71-.17-.66-.41.57.32-1.43.45-2.81.52-4.18-.98-.05-1.99-.09-3.1-.15-.56-.03-1.16-.08-1.81-.14-.6-.06-1.52-.14-1.82-.25.09.2,1.02.39-1.52.29-.11.06-.39.13-.56.18-.08,0-.1,0-.17-.02.05,0,.09.02.14.02-.11.03-.12.04.05,0,.61.09,1.1.19,1.3.31-1.26.46-5.31.45-6.68.69-1.51-.1.63-.23-.19-.45l-2.04.36c-.2-.45-4.01-.75-.45-1.01l-3.2-.02c-1.88-.25-4.48-.35-6.07-.16-1.51-.1-3.81.5-2.5.15l-5.02.28-.05-.11c-4.95-.06-10.19.74-15.86-.07-1.67.11-3.39.25-6.18.12l-.54-.39c-2.14.14-6.43-.39-7.35.02-2.31-1.05-10.39-.23-14.15-.41l-.14.51c-2.59-.03-5.08.12-8.29.32l.2.45c-2.77.37-7.13-.32-11.52-.27.3-.17,1.41-.13,2.2-.02-5.24-1.01-11.06.74-15.81,0-1.18.16-2.04.11-2.87,0,.11,0,.21,0,.29-.02-.12,0-.3,0-.49,0-.52-.08-1.06-.15-1.65-.24.5.11.97.2,1.38.24-.91,0-2.3.07-3.66.18l-.58-.48c-.11,0-.2,0-.31.01-1.33-.18-1.07.23-.36.59-.68.08-1.31.17-1.8.29-1.08-.78-3.56.26-5.04-.57-.92.4-6.83.3-7.55,1.15-.05-.11-.45-.16.29-.17-1.51-.1-3.03-.19-4.38.05l-.64-.61-3.31.82c-2.01-.37-2.84-.59-.85-1.06-4.81.72-3.91.27-8,.99l.2-.4c-1.46.02-3.8.55-4.69.22-3.27-.75-16.2-.1-24.61-.8,1.63,1.17-3.91-.52-4.24.38-.49-.28-1.66-.43-.3-.67-4.29.27-6.44-.44-9.41.32-.49-.28.92-.4.48-.57-.34.06-1.36.24-1.81.08-.44-.16.63-.23,1.31-.35-4.38.05-4.82.9-5.14,1.69-2.22-.38-3.33-.32-4.93.2-.77-.26-2.06-.53.66-.63-1.53-.04-9.36-.38-9.51.26-.48-.16-2.14-.05-2.54.03-1.72-.03-2.65-.04-3.58-.05-.6,0-1.19,0-1.91,0-.75,0-1.62.01-2.75.03l1.32.1c-.46.27-.95.37-1.62.4.02.63-.03,1.27-.07,2.05-.04.76-.09,1.75-.06,2.78l-.08-.08c-.56,6.24.27,2.69-.37,8.85l.48-.33c1.03.57-.61,5.45-.21,9.02l.27-1.29c.35,1.95-1.4,5.45-1.53,7.41-.09.43-.14-.67-.21-1.27-.61,5.13.63.66.77,4.49-.34.71-.86-.91-.92,1.66-.27,1.28,1.1,7.46.45,10.97.26-.77.52-1.54.72.23.09,2.72-.99,7.36-.16,9.81-.07.35-.14.48-.2.49.21,2.08.35,6.76.8,8.01-1.66,1.92.81,12.93-.72,12.89l.08,6.4-.16-.17c-.1,4.09.27,5.54.63,6.97-.1.95-.25.26-.33.18-.31,5.98-.24,6.57.52,11.58l-.5.52c.11.51.03,1.85-.09,3.64-.03.45-.06.92-.09,1.42-.03.53-.06.89-.09,1.8-.05,1.6-.1,3.35-.11,5.1,1.15,0,2.34,0,3.5-.03.58-.02,1.16-.04,1.73-.06l.42-.02.35-.02.55-.05c-.06.06-.18.15-.64.22,6.59-.58,15.79,1.38,18.2-.43l4.35-.44c-5.63-.14.84-.78-1.48-1.08,2.21-.11,5.72.54,3,.64l-.43-.09c-1,.94,7,.33,6.84.97,11.08-.05,21.88.47,32.25.51l-1.2-.73,3.62.04c.95.17,1.28.57-1.31.54,1.36.41,4.33-.35,4.4-.51,5.06.3-1.97.85-.42.87l2.11-.05-.47-.09c1.71-.3,1.86-.62,4.96-.58,1.96.15,1.01.45,1.78.48,0,.05.26.08,1.19.02l4.56.06-1.82-.58c2.02-.28,4.29.03,2.18-.62,3.09,1.01,17.01.36,18.91.68,2.83-.42,5.63-.41,9.09-.36-.86-.12-1.38-.77,1.61-.69-1.09,1.34,5.47.58,7.88,1.55-2.16-.64,8.49-.16,5.1-1.07,2.49.11.15.5,2.04.82,5.93-.52,13.07.34,20.4.16.11-.18-1.11-.44.46-.71l3.87.88c1.45-.09,1.33-1.02,3.98-.4-.37-.15-.93-.37.04-.43,14.36.86,29.34-.7,43.92.91-1.97-.34-.66-.37.85-.39-.98-.08.02-.43-.17-.67l6.1.66c1.11-.66,6.55-.04,7.18-.68l-1.93.11c2.57-.75-3.6-1.66-3.22-2.62-2.88.85-7.59-1.26-12.31-.04-1.04-.2.89-.31.33-.53-1.2.41-2.64.5-5.32.31l.3-.1c-7.53.1-10.75-.3-19.21-.57l.63.47c-1.82-.06-2.2-.21-3.05-.33-2.09.72,5.1.04,3.2.83-2.41-.96-12.81-.01-14.44-1.11-2.8,0,.82.55-1.97.54l-.74-.3-.71.38c-1.83-.06-2.76-.43-2.83-.68.44.03,1.26-.07,1.74-.09-2.38-.35-6.7.12-7.52,0l2.69.18c-7.63.28-16.94-.11-24.31.49l.56.22c-5.63.41-4.51-.25-10.69-.05l.22-.05c-1.24.22-2.89.34-4.58.31,1.56-.26-2.94-.51-.89-.8-6.1.44-3.02.35-7.05,1.18l-.93-.37c-1.37.34-1.49.51-4.57.61,2.53-.32-1.97-.57.87-.99-6.48-.81-9.62.82-12.59-.37-2.97,1.03,5.6.57,3.94.79,1.39.34-2.45.77-4.49.66-2.07-.02-3.52-1.31-8.72-1.29.52,0,.55-.07,1.07-.07-1.95-.26-3.82.35-6.2-.07-1.34.62-3.1-.04-3.49.76l4.77-.18c-2.71.21-5.24,1.13-9.7.68.35-.16,1.67-.37,2.59-.49-1.3-.23-2.51.15-3.86-.08.39-.79,5.8-.17,8.7-.78-1.4-.33-5.48.57-4.03-.28-2.09,1.09-5.13-.14-8.65.7l.23-.47c-.56.07-1.71.3-2.74.29l1.86-.62c-2.85.52-5.5-.46-8.24-.17,5.73-.01,1.29.57,3.71.92-7.07.64-4.06-1.24-11.98-1.01,1.07-.07,4.02.29,2.35.5-1.51-.1-3.5-.28-4.42-.53-5.24.1.81.49-1.43.78-1.78-.58-2.57.24-4.87.42l-.02-.48c-5.97-.31-1.58,1.01-6.96.63l2.27-.67-2.8.17.58-.55c-3.05.41-4,.3-6.99.15.69.34-.39.88-3.04.89-1.8-.29,1.01-.46-2.74-.39.85-.3,1.77-.68,3.41-.24.17-.16.84-.3,1.01-.46-1.94-.33-4.88-.08-6.24-.07.52.02,1.15.04,1.47.11l-5.44.67c-.86-.18-.18-.33.5-.47-1.1.05-1.86.27-3.48.32.42-.39.32-.8,2.61-.98l-5.18.44c-.09-.04-.3-.09-.55-.15l-.1-.02-.03-.02-.05-.04s-.07-.06-.1-.09c-.11-.11-.13-.22-.05-.3-.11-.06-.23-.04-.45.03-.04-.07-.11-.14-.17-.26-.03-.06-.07-.13-.1-.21l-.05-.13-.02-.07s-.01-.15-.02-.22c-.11-1.42-.18-2.87-.06-4.27-.08-.2-.15-.59-.2-1.4.09-3.58.57-6.75.03-10.99l.7-2.41c-.16-3.32-.89,3.26-1.15-2.27-.22-3.92.6-1.46.8-2.84-.35-1.95-1.08-5.33-.5-8.93.13,1.19.03,2.12.08,3.24ZM7.19,38.73c.1.79.41,2.38.13,2.96-.55-.9-.29-1.6-.13-2.96ZM31.87,4.35c-.59.16-1.5.08-2.53-.1.75-.04,1.59-.02,2.53.1ZM205.36.99s-.06.02-.08.02c-1.77-.19-1.14-.11.08-.02ZM209.04,1.2c.37-.07.34-.13.19-.2-.26.12-1.08.13-2.02.1.26.13.74.21,1.83.11ZM85.53,115.56l-.72-.13c1.62-.14,1.16-.01.72.13Z"/>
        <path class="cls-3" d="M24.81,5.01c-.22-.08-.29-.17-.34-.26-.31.08-.32.17.34.26Z"/>
        <path class="cls-3" d="M7.75,105.17v.12c.02.07.05.11.08.13l-.08-.25Z"/>
        <path class="cls-3" d="M152.08,5.29c-.76-.07-1.18-.16-1.46-.25-.04.12.3.22,1.46.25Z"/>
        <path class="cls-3" d="M228.37,5.83l-.13-4.05c.02,1.96-.08,2.72-.16,3.71.11-.11.28-.96.28.34Z"/>
        <path class="cls-3" d="M225.39,26.86c.06.34,0,.73.07,1.07l.22-.09c-.01-1.47-.2-2.49-.29-.98Z"/>
        <path class="cls-3" d="M226.77,8.6c-.41.19-.27,1.66-.19,3.31v-.29c.57.49.38-1.27.19-3.02Z"/>
        <path class="cls-3" d="M226.59,12.3c.02.51.03,1.03.01,1.53.23.19.05-.62-.01-1.53Z"/>
        <path class="cls-3" d="M213.7.93c.78.1.49-.52.93-.35.87-.52-5.22.62-.93.35Z"/>
        <polygon class="cls-3" points="225.43 9.93 225.93 9.34 225.53 8.42 225.43 9.93"/>
        <path class="cls-3" d="M219.01,2.96l2.64.14c-.04-.08.32-.13.78-.17-.84-.02-1.72-.03-2.39-.05-.64,0-1.07,0-1.04.08Z"/>
        <path class="cls-3" d="M222.44,2.92c.93,0,1.81,0,2.41-.08-.52,0-1.64.02-2.41.08Z"/>
        <polygon class="cls-3" points="225.28 6.36 225.39 5.57 225.42 3.7 225.28 6.36"/>
        <path class="cls-3" d="M190.67,2.86l-2.88.14c-.29.17.49.28,1.56.21.69-.12,1.76-.19,1.31-.35Z"/>
        <path class="cls-3" d="M199.37,4.23c-.78-.1-.83-.22-1.27-.38l-.09.62,1.36-.24Z"/>
        <path class="cls-3" d="M190.98,4.38c-.29.17-4.18.49-.53.46.29-.17,3.17-.31.53-.46Z"/>
        <polygon class="cls-3" points="147.63 3.59 148.36 3.58 148.26 2.56 147.63 3.59"/>
        <path class="cls-3" d="M109.42,6.03c3.41.24.81-.63,3.89-.32.8-.24-2.52-.25-1.7-.46-2.06.25-3.14.11-2.19.78Z"/>
        <path class="cls-3" d="M111.61,5.25c.33-.04.68-.09,1.05-.15-.6.06-.88.11-1.05.15Z"/>
        <polygon class="cls-3" points="219.39 116.08 221.58 116.29 220.17 115.95 219.39 116.08"/>
        <path class="cls-3" d="M223.6,115.32l.52.65,1.32-.59c-.5.03-1.46.08-1.83-.06Z"/>
        <path class="cls-3" d="M8.49,32.64l-.16-.17c-.17.34-.18.85-.21,1.88l.36-1.71Z"/>
        <polygon class="cls-3" points="8.01 62.37 8.02 61.86 7.43 62.82 8.01 62.37"/>
        <path class="cls-3" d="M8.76,87.33c.02-1.02-.11-2.22-.08-3.24.11,2.22-.65,3.51.08,3.24Z"/>
      </g>
    </g>
    <text class="cls-2" transform="translate(52.57 83.18)"><tspan x="0" y="0">A13</tspan></text>
  </g>
</svg>