<?xml version="1.0" encoding="UTF-8"?>
<svg id="Capa_2" data-name="Capa 2" xmlns="http://www.w3.org/2000/svg" viewBox="0 0 237.51 238.07">
  <defs>
    <style>
      .cls-1 {
        fill: #0511f2;
      }

      .cls-2 {
        fill: #212cf3;
      }

      .cls-3 {
        fill: #f2f2f0;
      }

      .cls-4 {
        fill: none;
        stroke: #0511f2;
        stroke-miterlimit: 10;
        stroke-width: 5px;
      }
    </style>
  </defs>
  <g id="Capa_1-2" data-name="Capa 1">
    <g>
      <circle class="cls-3" cx="117.97" cy="119.48" r="116.65"/>
      <g>
        <path class="cls-2" d="M237.04,118.6c0,1.1.4.71.48.87-.14-1.85-.59-.83-.48-.87Z"/>
        <polygon class="cls-2" points="234.59 100.6 234.81 100.89 233.93 98.33 234.59 100.6"/>
        <path class="cls-2" d="M230.73,84.14c-.25,1.74,1.87,5.84,2.22,8.86l-.05.52.87,1.2c-.48-1.78-1-3.82-1.61-5.69-.62-1.87-1.15-3.63-1.43-4.89Z"/>
        <path class="cls-2" d="M229.12,75.08c-.05.63-.95-1.75.7,2.01-.05-.2-.05-.26-.08-.38-.14-.34-.33-.82-.62-1.63Z"/>
        <path class="cls-2" d="M229.74,76.71c.68,1.67-.22-1.18,0,0h0Z"/>
        <path class="cls-2" d="M226.35,69.1l1.2,2.06c-.05-.52-.89-2.47-.46-1.8-1.13-2.17-1.07-1.64-.74-.26Z"/>
        <path class="cls-2" d="M224.92,67.29c.22.35.43.7.63,1.06-.03-.22-.13-.54-.63-1.06Z"/>
        <path class="cls-2" d="M226.82,70.63l-1.27-2.28c.04.36-.16.49.56,1.05-.28-.1.12.28.71,1.22Z"/>
        <path class="cls-2" d="M227.33,72.02c.42,1.27.94,2.9-.18.81.92,2.06,1.38,2.91,1.44,2.71.03-.19-.28-1.47-1.26-3.51Z"/>
        <path class="cls-2" d="M229.75,83.55c.12.57.25,1.14.33,1.73l.64,1.39c-.16-.35-.34-1.17-.51-1.89-.18-.71-.38-1.31-.46-1.23Z"/>
        <path class="cls-2" d="M219.6,55.92c-.21-.04.09.89.02,1.14.37.45.71.93,1.05,1.41-.33-.85-1.2-2.33-1.07-2.55Z"/>
        <path class="cls-2" d="M219.62,57.06l-1.63-2.06c1.23,1.98,1.57,2.28,1.63,2.06Z"/>
        <path class="cls-2" d="M224.02,67.27c.84,1.17,1.53,2.42,2.3,3.64-.87-1.48-1.72-2.95-2.68-4.37l.38.73Z"/>
        <path class="cls-2" d="M213.95,47.61c.39.33.77.67,1.16,1l-.99-.93-1.03-.88.86.81Z"/>
        <path class="cls-2" d="M209.75,42.44c.95.65-.62-1.46.29-.7-1.24-1.34-2.42-2.36-3.53-3.24,1.09,1.01,2.08,2.25,3.24,3.93Z"/>
        <path class="cls-2" d="M204.65,37.04c.56.49,1.18.95,1.85,1.47-.59-.52-1.2-1.02-1.85-1.47Z"/>
        <path class="cls-2" d="M215.57,51.26c-.04-.22-.07-.67-.84-1.93l.25,1.09c.18.26.38.55.59.84Z"/>
        <path class="cls-2" d="M214.99,50.45v-.04c-.65-.92-1.09-1.55-1.28-1.82.16.24.55.8,1.28,1.86Z"/>
        <path class="cls-2" d="M215.72,51.47c-.05-.08-.09-.14-.15-.21.02.1.05.16.15.21Z"/>
        <path class="cls-2" d="M221.16,61.07c-.97-1.21-2.77-3.83-1.56-.98.8.8.1-.83,1.56.98Z"/>
        <path class="cls-2" d="M216.02,52.81c.51.77.95,1.58,1.43,2.37.07-.11-.07-.62.44-.04-.63-.78-1.22-1.57-1.87-2.33Z"/>
        <polygon class="cls-2" points="215.12 51.79 216.02 52.81 215.45 51.96 215.12 51.79"/>
        <path class="cls-2" d="M207.58,40.83c-.46-.39-.91-.83-1.37-1.31-.47-.47-.96-.96-1.49-1.49,1.06,1.19,2.09,2.46,3.11,3.64.24.08.88.44-.25-.84Z"/>
        <path class="cls-2" d="M211.27,45.44c-.06-.06-.13-.14-.18-.19.07.15.15.26.18.19Z"/>
        <path class="cls-2" d="M194.13,28.02c.04.07.08.14.13.21.03,0,.05-.02.09-.02l-.22-.19Z"/>
        <path class="cls-2" d="M207.94,41.92c.72.95,1.26,1.42,1.81,1.85-.62-.65-1.26-1.34-1.92-2.11-.11-.04-.15-.02.11.25Z"/>
        <path class="cls-2" d="M201.65,34.26c.39.49.85,1.04,1.3,1.63-.31-.55-1.06-1.56-1.3-1.63Z"/>
        <path class="cls-2" d="M210.93,44.85s.08.08.13.13c-.17-.37-.18-.3-.13-.13Z"/>
        <path class="cls-2" d="M210.93,44.85c-.43-.44-.81-.76-1.18-1.08.48.55.93,1.05,1.34,1.47-.07-.14-.12-.28-.16-.39Z"/>
        <path class="cls-2" d="M189,27.43c.2-.09.96.26,1.9.89.47.32.99.69,1.49,1.13.49.45.98.95,1.41,1.46,2.17,1.48,1.75-.6.45-2.69-.18.09-.25.16-2.55-1.33.67.71,4.3,4.27,2.34,3.04-1.41-1.11-1.98-1.57-2.32-1.95-.34-.38-.47-.66-1.09-1.28.43.65-.58.09-1.67-.5-1.08-.61-2.31-1.14-2.2-.63.91.52,1.76,1.11,2.64,1.68-.02.12-1.02-.43-.4.19Z"/>
        <path class="cls-2" d="M198.17,31.69l.85.74c-.87-.95-1.46-1.67-2.55-3.01-1.55-1.09-1.94-1.23-2.12-1.21,1.38,1.24,2.8,2.43,4.14,3.7l-.32-.22Z"/>
        <path class="cls-2" d="M202.65,35.95c-.89-.36-3-2.05-2.13-.59,2.36,2.28,1.86,1.39,3.37,2.67-3.75-3.78,1.23.94-1.25-2.02.78.71,1.44,1.38,2.07,2.01-.63-.73-1.22-1.45-1.77-2.14.03.04.04.07.07.11l.02.02h0c.12.21.15.28,0,.07-.02,0-.06-.05-.08-.07-.07.02-.17-.02-.28-.06-1.01-1.18-.09-.26.28.06.03,0,.07.01.09,0v-.02c-1.29-1.25-2.68-2.37-4.01-3.56.77.84,1.84,1.77,3.64,3.52Z"/>
        <path class="cls-2" d="M217.37,58.15c-.06-.16-.03-.17,0-.19-.23-.26-.33-.35,0,.19Z"/>
        <path class="cls-2" d="M216.43,56.19c.26.29.58.47,1.21,1.54.47.98-.18.1-.27.23.51.56,1.65,2.07.59-.04l-.25-.28c-1.02-1.86-2.05-4.47-1.8-4.19.02.74.08,1.36.52,2.75Z"/>
        <path class="cls-2" d="M209.91,45.71c-.94-1.13-1.98-2.18-2.99-3.25l1.18,1.94.1-.23c1.53,1.98,1.37,1.41,1.71,1.54Z"/>
        <path class="cls-2" d="M193.88,27.52l.74.04c-.78-.42-1.62-.75-2.42-1.12l1.68,1.09Z"/>
        <path class="cls-2" d="M189.29,23.97l.41-.18c-.45-.25-.93-.47-1.39-.71l.98.89Z"/>
        <path class="cls-2" d="M19.64,177.7l.73,1.03c-.33-.49-.55-.81-.73-1.03Z"/>
        <path class="cls-2" d="M15.33,169.68l-.28-.11c.29.33.44.45.28.11Z"/>
        <path class="cls-2" d="M55.29,18.16c-1.8.71-3.93,1.4-3.49,1.64l.73.04c1.08-.79,1.97-1.3,2.75-1.69Z"/>
        <path class="cls-2" d="M3.69,96.54c.07-.17.15-.34.23-.51-.04-.47-.09-.92-.12-1.32-.03.55-.1,1.17-.1,1.83Z"/>
        <path class="cls-2" d="M5.22,98.17l-.7,2.34c.19-.52.42-1.27.7-2.34Z"/>
        <path class="cls-2" d="M53.62,213.35c.48.16.96.33,1.45.46-1.89-1.27-1.18-.54-1.45-.46Z"/>
        <path class="cls-2" d="M134.92,1.67c-1.61-.38-2.91-.61-4.05-.78,1.95.5,3.48,1.07,4.05.78Z"/>
        <path class="cls-2" d="M13.82,176.81c.47.66.71.91.79.84-.47-.68-.78-1.04-.79-.84Z"/>
        <path class="cls-2" d="M126.12.5c.29.06.57.11.86.17,1.21.03,2.43.02,3.89.23-1.44-.37-3.12-.56-4.75-.4Z"/>
        <path class="cls-2" d="M212.63,183.33c.09-.1.19-.22.26-.31-.03-.07-.13.09-.26.31Z"/>
        <path class="cls-2" d="M235.45,135.28c-.04.54-.15,1.41-.25,2.23.08-.39.16-1.07.25-2.23Z"/>
        <path class="cls-2" d="M169.43,11.74c1.12.51.2.03,0,0h0Z"/>
        <path class="cls-2" d="M173.95,15.96c-.25-.07-.46-.11-.53-.04.14-.05.32-.03.53.04Z"/>
        <path class="cls-2" d="M113.96,2.99s-.06,0-.1,0c.36.08.3.06.1,0Z"/>
        <path class="cls-2" d="M171,12.74c-.39-.26-.84-.54-1.35-.83.21.14.62.4,1.35.83Z"/>
        <path class="cls-2" d="M170.87,12.45c.37.21.66.37.94.53.17,0,.07-.1-.94-.53Z"/>
        <path class="cls-2" d="M167.85,11.05c.65.28,1.24.57,1.8.86-.21-.13-.29-.19-.22-.18-.33-.14-.8-.35-1.57-.69Z"/>
        <path class="cls-2" d="M133.11,233.79c.08,0,.17,0,.26,0,1.17-.33.65-.23-.26,0Z"/>
        <path class="cls-2" d="M33.95,41.51s.05-.07.08-.11c-.04.04-.09.08-.13.12h.05Z"/>
        <path class="cls-2" d="M31.37,44.9c.78-1.71,1.48-2.49,2.53-3.38-.63.06-1.27.11-1.89.19l-.64,3.2Z"/>
        <path class="cls-2" d="M32.57,195.19l-1.65-2.5c2.82,2.29,4.35,4.35,2.94,1.91-.32.15-.96-.31-1.75-1.08-.79-.77-1.77-1.82-2.65-2.96-.9-1.12-1.8-2.24-2.56-3.05-.72-.84-1.31-1.36-1.65-1.25l-.9-1.76c.31.46.43.49.74.95-1.68-3.46-2.43-1.76-4.95-6.02-.81-1.52-1.21-2.67-.5-1.74l-2.2-3.15c-.52-.98-.19-.85.34.12-.98-1.68-1.85-3.41-2.79-5.12l.06.02c-.58-.64-1.62-2.24-2.14-3.02-.44-1.44.44.62.44.2-.54-.94-1.11-1.87-1.62-2.83-.08-.68.2-.43.61.25.44.67,1.01,1.75,1.45,2.78,0-1.65-.36-2.22-.95-3.16-.54-.96-1.34-2.31-2.13-5.48.39.94.84,1.85,1.26,2.77.02-1.06-.31-2.08-.63-3.3-.32-1.22-.74-2.6-1.05-4.29.01.82,1.05,6.88-.39,3.68-.21-.97-.6-2.21-1.44-3.93.46-.16-.16-1.89-.82-4.11l.66-.02c-.44-1.16-.69-1.69-.92-2.09-.24-.4-.46-.67-.76-1.35-.57-2.73-.22-3.38.09-4.11-.68-4.38-.24,3.17-1.28-1.98-.1-.92-.22-1.77-.37-2.59-.11-.83-.23-1.63-.38-2.45-.29-1.64-.71-3.36-1.03-5.57.02-2.61.42.42.54-.52l-.68-2.26c-.03-.56.14-.39.23-.3-.3-1.93-.66-.12-.92-3.18-.35-.4-.18-1.99.09-3.93.32-1.94.54-4.23.28-6.14.25-.92.36.47.63.2-.07-2.6-.09-3.72-.12-4.72-.03-1.01-.03-1.89-.12-4.06.29-1.19.57-2.37.95-3.54-.95,2.56-.91-.89-.83-3.97-.4.9-.74,1.67-.93,2.2.17-1.62.33-3.24.61-4.84.23-.55.34-.02.42.81.02-.33.04-.65.05-.9.62-1.64.78-.67.85.6-.26.54-.52,1.08-.78,1.61.17,1.25.4,2.42.81,2.25-.02-.32.03-.92.11-1.58.05.33.11.54.19.41.1-.14.02-.67.05-1.46l.94-.91-.22-.32c.61-2,1.2-3.99,1.95-5.93.12-1.12.23-2.22.34-3.33.16-1.11.32-2.24.53-3.46.11-.61.22-1.23.34-1.89.14-.65.33-1.31.52-2.01.41-1.39.82-2.95,1.5-4.61-.25,1.83.63.68,1.16,1.02-.7.75-1.11,2.08-1.58,3.6-.23.77-.47,1.58-.71,2.43-.23.85-.49,1.73-.81,2.59.68-1.79.82-1.29.76-.8.46-2.14,1.15-4.21,1.75-6.33.41.33.85-1.15,1.77-2.61-.72.39-.37-.79.26-2.39.16-.4.34-.82.52-1.26.2-.42.41-.86.61-1.28.4-.85.77-1.65,1.01-2.28.37,0,.39.74-1.17,3.59,2.32-2.83,1-4.71,3.37-7.46-.39.7-.65,1.04-.66,1.4.33-.88,1.12-2.28,1.79-3.32.68-1.04,1.29-1.68,1.11-1.16l-.42.67c.74-1.09,1.65-2.49,2.59-3.97.99-1.46,2.04-3.01,3.01-4.44,1.99-2.82,3.61-5.24,3.55-5.81.12.03.33,1.18.28,1.54,1.28-2.99,2.62-6.04,4.18-8.98-.04,1.1,3.4.01.69,3.46.47-.42.99-.88,1.6-1.51.61-.62,1.29-1.42,2.17-2.41-.69.51-2.28.74-1.49-.13,2.92-1.63,1.9-1.28,5.3-3.42-1.07.72-.76-1.06.81-2.38-.13.34.86.75.38,1.32l1.54-2.08c.52-.69,1.08-1.34,1.63-2.02-.87.94.42.88,1.5.44-.27.07.59-.59,1.64-1.4,1.07-.78,2.37-1.63,2.88-2.07l-1.89,1.03c2.38-1.57,3.26-2.76,4.25-3.83.48-.55.96-1.11,1.63-1.71.67-.6,1.5-1.3,2.76-1.98-.49.55-.73,2.07,1.83.76.82-1.16,3.74-5.36,8.27-7.89l1.03-.11c1.14-.65,2.28-1.33,3.47-1.9-1,.81-2.84,2.43-4.81,4.03-1,.78-1.96,1.69-2.89,2.47-.92.8-1.8,1.51-2.52,2.1,2.01-.76.71.07,3.52-1.41,1.13-.23-1.33,1.21-2.14,1.64,2.22-1.06,4.41-2.15,6.7-3.05-.29-.24.93-.97,2.16-1.7,1.26-.67,2.54-1.32,2.3-1.53-2.44,1.15-4.76,2.54-7.1,3.84-.29-.24.56-1.14,2.11-2.26.78-.55,1.71-1.2,2.8-1.74,1.09-.55,2.29-1.08,3.54-1.54,1.35-.24-.51,1.49-.33,1.66.28-.22,1.38-.83,2.53-1.27,1.14-.45,2.27-.85,2.53-.85l-2,1.05c1.42-.35,2.48-.94,3.63-1.51,1.15-.56,2.43-1.01,4.2-1.2,1.18-.33,3.71-.07,3.82-.49-2.09-.3-3.1-2.51-1.91-3.37.22-.02,1.86-.2,3.62-.39,1.75-.21,3.66-.19,4.38-.16,2.09.24-2.73,1.94-.94,2.15.04-.19,1.09-.61,1.53-.76,1.29-.07-.42.65,2.29.08.36-.74,5.62-.66,1.22-.74,1.34-.27,2.07-.33,2.85-.37.79-.04,1.63-.1,3.22-.22-.53-.18.15-.61,1.32-1.04,1.17-.42,2.82-.92,4.2-1.01-.16.18.47.39.78.48,1.41-.02,2.66-.02,3.82-.01,1.16.05,2.23.13,3.29.2,1.06.07,2.1.14,3.21.21,1.1.11,2.27.22,3.58.33.47.19,2.97.61,1.87.8.76-.03,1.47-.17,3.07.02,3.02.98-3.57-.36-1.3.64.24-.34,4.2-.09,6.5.15-.3-.35-1.6-.67-3.13-.78-1.53-.12-3.27-.15-4.42-.17.04-.42,1.08-.72,2.81-.88.87-.07,1.91-.14,3.08-.1,1.17.05,2.46.16,3.85.31,2.2.26,2.63.58,2.62.71,0,.15-.46.21-.08.23,2.01.5,3.46.76,4.62.9,1.14.2,2,.26,2.81.33.81.07,1.58.14,2.55.35.97.21,2.12.65,3.71,1.33,2.42,1.39-.24,1.05.21,1.61-1.73-.47-2.99-1.01-4.13-1.48-1.15-.44-2.16-.86-3.33-1.18l2.8,1.06c-1.15-.14-3.47-.66-4.68-1.16.52.27,1.61.65,3.04,1.1.72.22,1.53.46,2.39.73.85.29,1.76.61,2.7.93.94.33,1.91.64,2.88,1.01.95.39,1.91.78,2.84,1.16,1.87.73,3.59,1.59,4.98,2.35,1.1.3,2.95.93,2.2.36l-1.86-.76c-1.51-1.16,3.71,1.02,1.47-.22,1.31.39,2.66.93,4.13,1.52.73.31,1.49.64,2.27,1.03.76.42,1.54.89,2.34,1.42l.32.89c.02-.19-1.98-1.57-3.01-1.93.76.27,1.93,1.19,3.14,2.05.6.43,1.23.84,1.81,1.17.57.35,1.11.6,1.59.66-.68-.6-1.34-1.22-2.06-1.78,1.27.54,2.66,1.21,4.13,1.92,1.48.7,2.93,1.6,4.27,2.67-.93-1.39-.67-.41-2.27-2.39,1.29,1.86-7.38-4.76-5-2.15-.86-.98-1.76-1.59-2.74-2.24-.99-.65-2.05-1.35-3.36-2.39,0,.23.85.87-1.67-.53-.14,0-.45-.08-.64-.13-.08-.05-.1-.06-.17-.1.05.03.08.06.13.09-.12-.03-.14-.03.05.03.57.39,1.02.74,1.16.94-.75-.11-2.11-.72-3.51-1.29-1.41-.55-2.82-1.12-3.57-1.33-1.51-.79.74.08-.02-.5-.74-.21-1.49-.41-2.26-.57-.03-.5-3.94-2.35-.09-1.12l-3.37-1.35c-1.92-.97-4.69-2-6.47-2.37-1.62-.56-4.29-.7-2.77-.63-.93-.21-1.85-.44-2.77-.63l-2.8-.5-.03-.12c-2.71-.72-5.6-.97-8.55-1.41-2.97-.28-6-.75-9.17-1.33-.95-.01-1.9-.03-3.02-.07-1.12,0-2.39-.03-3.97-.13l-.61-.4c-1.22-.01-3.04-.03-4.69-.05-1.65-.02-3.13-.03-3.64.24-.67-.21-1.74-.28-3.04-.25-.65.01-1.36.05-2.1.1-.74.07-1.51.18-2.3.29-1.57.24-3.19.44-4.67.75-1.48.3-2.83.56-3.89.7l-.06.53c-1.46.21-2.84.64-4.32,1.01-.73.21-1.49.42-2.28.64-.79.24-1.6.54-2.46.83l.33.37c-1.45.62-3.42,1.03-5.56,1.67-1.08.3-2.21.62-3.37.95-1.15.37-2.3.81-3.45,1.27.25-.28,1.44-.7,2.3-.93-1.47.31-2.92.79-4.34,1.36-1.41.62-2.77,1.36-4.12,2.09-1.36.7-2.63,1.53-3.91,2.23-1.28.71-2.56,1.31-3.8,1.84-1.08.81-1.94,1.24-2.81,1.61.11-.06.2-.13.28-.19-.12.07-.3.17-.48.27-.56.22-1.12.47-1.71.77.53-.21,1.02-.43,1.46-.62-.89.52-2.16,1.45-3.39,2.36l-.81-.05c-.1.07-.18.13-.29.2-1.37.67-.89.84-.02.71-.61.47-1.12.98-1.5,1.38-.72.03-1.5.67-2.33,1.33-.84.65-1.7,1.35-2.6,1.55-.28.48-1.75,1.73-3.15,3-1.35,1.34-2.63,2.7-2.66,3.28-.11-.05-.49.21.13-.34-1.37,1.01-2.65,2.13-3.58,3.36l-.95.06-1.05,1.57-.99,1.63c-1.82,1.36-2.63,1.9-1.42-.05-1.63,2.19-2.29,3.07-2.88,3.87-.59.8-1.15,1.51-2.35,3.49l-.17-.43c-1.01,1.3-2.2,3.69-3.07,4.26-.7.62-1.69,1.87-2.92,3.49-.63.8-1.25,1.73-1.9,2.73-.65,1-1.34,2.07-2.06,3.18-2.71,4.53-5.51,9.82-7.68,14.04.92-.6.32.34-.36,1.54-.66,1.21-1.45,2.68-1.09,3.02-.46.41-1.09,1.59-.75.07-.81,2.29-1.39,4.01-1.99,5.53-.6,1.52-.96,2.93-1.05,4.64-.42.46-.11-1.11-.4-.68-.05.39-.19,1.55-.49,1.99-.29.43-.03-.74.07-1.52-.33,1.2-.53,2.14-.64,2.89-.07.76-.06,1.31,0,1.74.13.84.48,1.14.83,1.41-.46,1.17-.75,2.06-.91,2.89-.12.84-.11,1.62-.01,2.54-.41.8-.93,2.18-.49-.84-.09.42-.26,1.28-.48,2.32-.11.52-.22,1.1-.34,1.69-.08.6-.17,1.21-.25,1.81-.32,2.42-.54,4.65-.19,4.77-.2.52-.23,2.39-.19,2.84-.18,1.92-.27,2.96-.29,4-.04,1.04-.06,2.07-.08,3.96l.13-1.05c.7,1.5.17,3.13.33,6.17l-.08-.08c-.12,1.75-.06,2.81-.02,3.53.04.72.1,1.09.16,1.46.06.37.11.73.14,1.44,0,.35.02.79.04,1.36.02.57.05,1.26.09,2.12l.43-.43c.55.26.59,1.78.61,3.73.08,1.94.21,4.33.76,6.26v-1.47c.35,1.04.36,2.59.3,4.17-.05,1.58-.2,3.21.08,4.29.05.49-.36-.69-.58-1.33.97,5.76.8.57,2.12,4.67-.09.86-1.14-.73-.33,2.07.11.73,1.03,2.66,2.04,4.87.55,1.09,1.12,2.25,1.6,3.39.24.57.46,1.13.65,1.67.21.53.39,1.05.52,1.53-.12-.9-.24-1.79.77-.05,1.28,2.75,2.66,7.93,4.76,9.95.13.37.15.53.1.58.69.95,1.66,2.59,2.73,4.03,1.06,1.44,2.08,2.76,2.65,3.23-.07.7.51,1.73,1.33,2.94.83,1.21,1.91,2.59,3.05,3.82,1.13,1.24,2.18,2.46,2.95,3.36.77.9,1.16,1.56.87,1.8.8.89,1.58,1.81,2.41,2.68l2.51,2.58-.24-.03c1.53,1.73,2.77,2.7,3.69,3.44.95.72,1.64,1.16,2.37,1.56.73.77.05.37-.07.37,2.44,2.31,3.78,3.6,5.19,4.57,1.41.98,2.72,1.87,5.25,3.15l.19.74c1.33.71,7.61,6.17,13.79,8.68-.08.02-.25.04-.75-.13,3.42,1.48,7.28,3.69,10.81,5.3,3.5,1.66,6.65,2.69,8.21,2.27,1.58.42,3.21.65,4.8.97-6.01-1.85,1.12-.5-1.29-1.49,1.2.28,2.68.85,3.52,1.25.84.36,1,.62-.47.27l-.43-.22c-1.34.71,7.52,2.17,7.24,2.68,6.11,1.21,12.22,1.95,18.26,2.37,1.51.07,3.02.14,4.52.21,1.5.02,3,0,4.49,0,.74-.01,1.49,0,2.23-.04.74-.05,1.48-.09,2.22-.14,1.47-.11,2.95-.15,4.4-.35-.47-.19-.94-.36-1.41-.58,1.35-.11,2.69-.3,4.03-.45,1.08.03,1.5.39-1.39.72,1.58.23,4.79-.96,4.83-1.18,5.65-.71-2.05,1.23-.33.94l2.33-.47h-.54c.92-.31,1.41-.55,2.1-.79.34-.12.74-.23,1.26-.36.52-.15,1.16-.31,2.01-.5,2.18-.35,1.21.18,2.06.02,0,.05.3,0,1.31-.28,1.66-.41,3.31-.89,4.97-1.33h-2.14c2.11-.87,4.63-1.3,2.18-1.26,1.79-.03,6.38-1.41,10.64-3.17,2.14-.85,4.17-1.87,5.83-2.6,1.64-.79,2.86-1.43,3.37-1.59.66-.46,1.33-.89,2.01-1.3.67-.44,1.35-.88,2.06-1.32,1.42-.87,2.96-1.7,4.59-2.76-.88.42-1.7.17,1.14-1.55-.16.87,1.25.23,2.95-.87,1.69-1.11,3.82-2.47,5.15-2.96-1.15.5.71-1.01,2.4-2.44,1.69-1.43,3.11-2.9,1.4-1.99,2.18-1.74.45.27,2.26-.88,4.66-4.76,10.9-9.93,15.83-16.61-.06-.21-1.12.71-.24-.84,1.15-.94,2.19-1.98,3.28-2.99.44-.69.45-1.14.63-1.68.19-.53.52-1.16,1.57-2.25-.35.27-.87.68-.33-.27,4.77-6.51,8.44-13.99,11.35-21.72,2.92-7.75,5.1-15.73,7.21-23.73-.73,2.14-.5.67-.22-1-.27,1.07-.42-.09-.7.09.51-2.23,1.05-4.46,1.49-6.72-.28-.66-.15-2.49-.03-4.25.14-1.77.11-3.47-.18-3.84l.06,2.17c-.34-1.46-.76-.46-1.26.82-.54,1.28-1.13,2.83-1.59,2.59.15.8.11,1.72-.03,2.72-.16,1-.46,2.08-.74,3.22-.51,2.29-1.2,4.76-1.07,7.42-.39,1.09-.13-1.02-.46-.46.21,1.37-.1,2.93-.93,5.74l-.02-.35c-.39,2.02-.97,3.69-1.42,5.26-.44,1.57-.99,2.97-1.54,4.4-.54,1.43-1.1,2.89-1.84,4.48-.71,1.6-1.46,3.4-2.51,5.45l.71-.43c-.88,1.78-1.18,2.1-1.67,2.89-.29,2.38,2.33-5.05,2.2-2.84-.49.51-1.1,1.55-1.76,2.86-.68,1.3-1.48,2.82-2.27,4.32-.75,1.52-1.66,2.93-2.38,4.07-.75,1.13-1.38,1.97-1.87,2.19-1.65,2.56.95-.46-.7,2.1l-.68.52-.1.86c-1.12,1.66-2.08,2.22-2.3,2.15.3-.38.74-1.16,1.02-1.59-.89.95-1.92,2.45-2.8,3.79-.89,1.34-1.72,2.46-2.03,2.78.64-.73,1.31-1.45,1.94-2.19-1.22,1.67-2.52,3.44-3.95,5.16-1.47,1.69-2.92,3.47-4.53,5.1-.78.83-1.57,1.66-2.34,2.49-.81.79-1.6,1.58-2.39,2.36-1.53,1.6-3.13,3.01-4.54,4.46l.61-.23c-.55.54-1.02,1-1.44,1.38-.43.37-.81.67-1.15.94-.67.53-1.2.89-1.74,1.26-.54.37-1.1.75-1.86,1.28-.78.52-1.75,1.2-3.1,2.22l.17-.19c-.95,1-2.43,2.04-4,3.02,1.29-1.14-2.97,1.3-1.24-.15-2.71,1.93-3.42,2.36-3.81,2.76-.42.37-.51.72-2.28,2.1l-1.08.14c-.59.49-.9.79-1.43,1.17-.53.37-1.27.87-2.81,1.6,2.4-1.43-2.2.38.44-1.28-1.7.54-3.11,1.13-4.35,1.71-1.25.55-2.33,1.05-3.3,1.52-1.92.97-3.49,1.59-5.21,1.54-1.37,1.01.12.65,1.76.14,1.65-.47,3.37-1.29,2.56-.83.77-.12.21.3-.81.85-1.03.51-2.55,1.1-3.62,1.41-1.08.36-2.1.37-3.54.42-.72.04-1.53.1-2.51.25-.49.08-1.02.18-1.59.31-.58.1-1.22.23-1.91.39.55-.12.57-.21,1.12-.33-1.06.11-2.05.43-3.11.74-.53.16-1.07.31-1.65.44-.58.1-1.2.17-1.86.18-1.33.87-3.33.56-3.62,1.41l5.11-1.1c-1.44.36-2.8.89-4.42,1.39-1.62.49-3.54.79-5.99.9.36-.21,1.78-.6,2.76-.84-1.45-.07-2.71.54-4.21.41.18-.39,1.74-.61,3.65-.88.95-.13,1.99-.26,2.98-.44.98-.22,1.92-.46,2.67-.75-.78-.04-2.21.4-3.3.62-1.08.22-1.79.32-1.06-.21-1.05.68-2.45.83-4.03.96-1.59.06-3.37.09-5.27.66l.23-.49c-.6.14-1.85.39-2.97.41l1.99-.67c-3.08.59-5.97-.25-8.92-.11,3.1.08,3.45.21,3.35.4-.1.19-.65.44.67.58-7.73.49-4.41-1.18-12.94-1.63,1.15.06,4.32.62,2.49.71-.81-.12-1.75-.23-2.61-.43-.85-.2-1.62-.4-2.1-.59-5.64-.62.8.59-1.64.58-1.85-.79-2.8-.2-5.31-.44l.07-.48c-.79-.18-1.42-.31-1.91-.39-.49-.1-.86-.17-1.14-.19-.56-.05-.78.02-.97.1-.39.16-.71.33-3.54-.52l2.57-.09c-1-.18-2.01-.32-3.01-.54.25-.12.49-.23.74-.37-1.64-.24-2.71-.48-3.75-.76-1.04-.28-2.05-.63-3.56-1.24.61.57-.67.7-3.42-.22-1.75-.94,1.18-.01-2.65-1.44.98.04,2.01.12,3.55,1.08.22-.09.96,0,1.19-.08-1.91-.93-4.93-1.91-6.3-2.44.52.22,1.14.5,1.44.69-.95-.26-1.92-.5-2.87-.78l-2.83-.91c-.77-.55-.04-.38.68-.21-1.1-.46-1.98-.55-3.57-1.31.58-.15.64-.52,2.98.32-1.78-.6-3.48-1.36-5.22-2.08-.26-.31-2.33-1.74-1.62-1.53-1.28-.88-3.03-1.64-4.87-2.52-1.79-.96-3.75-1.92-5.34-3.24-.22-.06-.61-.25-1.36-.71-.78-.58-1.52-1.16-2.25-1.75-.71-.61-1.42-1.23-2.15-1.85-.73-.62-1.5-1.22-2.31-1.85-.79-.65-1.65-1.3-2.61-1.95-.49-.76-1.02-1.46-1.48-2.25-2.71-2.36,1.96,3.09-2.57-.86-3.24-2.79-.74-1.52-1.64-2.71-.85-.64-2.04-1.5-3.31-2.6-1.25-1.12-2.49-2.57-3.56-4.21.95.89,1.53,1.72,2.36,2.6ZM9.91,157.25c.19.39.49.97.74,1.53.28.55.5,1.1.48,1.44-.89-.71-.92-1.52-1.22-2.97ZM6.07,90.27c-.02.66-.3,1.62-.74,2.68.15-.81.36-1.72.74-2.68ZM156.8,7.01s-.07,0-.1,0c-1.84-.82-1.19-.52.1,0ZM160.62,8.62c.41.09.41.02.27-.11-.31,0-1.18-.33-2.16-.74.24.22.7.5,1.89.85ZM146.38,234.61l-.81.06c1.74-.54,1.27-.31.81-.06Z"/>
        <path class="cls-2" d="M5.04,97.96c-.12.23-.22.28-.32.32.02.35.11.37.32-.32Z"/>
        <path class="cls-2" d="M53.35,213.26l.11.08c.08.02.13.02.16,0l-.27-.09Z"/>
        <path class="cls-2" d="M98.15,6.53c-.82.08-1.29.07-1.61.03-.02.12.37.16,1.61-.03Z"/>
        <path class="cls-2" d="M180.73,17.67c-.76-.46-1.57-.85-2.36-1.26,1.13.63,1.49.93,1.99,1.36,0-.13-.34-.54.37-.1Z"/>
        <path class="cls-2" d="M197.15,33.9c.32.22.59.55.9.77l.08-.24c-1.19-1.11-2.13-1.76-.98-.53Z"/>
        <path class="cls-2" d="M181.94,20.35c-.02.23.33.53.89.9.57.36,1.32.8,2.09,1.32-.09-.06-.18-.13-.27-.19.38-.08.15-.36-.4-.75-.55-.38-1.44-.82-2.31-1.28Z"/>
        <path class="cls-2" d="M185.28,22.81c.47.31.95.64,1.4.98.31-.06-.54-.44-1.4-.98Z"/>
        <path class="cls-2" d="M165.6,10.37c.76.46.72-.25,1.11.11.56-.03-.86-.5-1.84-.74-.49-.13-.88-.16-.86-.09.03.07.46.27,1.59.71Z"/>
        <polygon class="cls-2" points="182.46 22.28 182.18 21.5 181.1 21.29 182.46 22.28"/>
        <path class="cls-2" d="M170.14,14.73l2.54,1.46c0-.09.35.03.78.21-1.6-.84-3.32-1.83-3.32-1.67Z"/>
        <path class="cls-2" d="M173.46,16.39c.83.45,1.6.91,2.09,1.09-.45-.24-1.39-.8-2.09-1.09Z"/>
        <path class="cls-2" d="M179.02,20.25l-.67-.55-1.77-1.06c.81.54,1.66,1.02,2.44,1.61Z"/>
        <path class="cls-2" d="M140.42,4.53l-3.17-.42c-.35.11.49.37,1.67.51.77.02,1.95.16,1.5-.09Z"/>
        <path class="cls-2" d="M149.46,8.1c-.8-.33-.82-.46-1.24-.75l-.25.57,1.5.18Z"/>
        <path class="cls-2" d="M140.47,6.08c-.35.11-4.59-.32-.66.35.35-.13,3.48.35.66-.35Z"/>
        <polygon class="cls-2" points="93.03 5.8 93.82 5.61 93.49 4.64 93.03 5.8"/>
        <path class="cls-2" d="M55.64,24.1c3.24-1.78.39-1.02,3.39-2.54.61-.68-2.45,1.24-1.8.59-1.75,1.43-2.82,1.94-1.58,1.94Z"/>
        <path class="cls-2" d="M57.22,22.16c.28-.23.58-.48.88-.75-.51.41-.75.61-.88.75Z"/>
        <path class="cls-2" d="M236.86,126.31c.15-.82.21-1.65.31-2.47l-.38,1.59c.04.29.05.59.07.88Z"/>
        <path class="cls-2" d="M236.26,121.54l.66-.57-.55-1.49c.01.56.04,1.64-.11,2.06Z"/>
        <path class="cls-2" d="M9.18,150.58l-.2-.13c-.06.4.08.93.35,2.01l-.15-1.88Z"/>
        <polygon class="cls-2" points="21.75 179.91 21.46 179.44 21.52 180.62 21.75 179.91"/>
        <path class="cls-2" d="M39.16,200.28c-.79-.75-1.77-1.59-2.5-2.41,1.69,1.67,2.22,3.13,2.5,2.41Z"/>
      </g>
    </g>
    <ellipse class="cls-1" cx="90.17" cy="86.51" rx="13.9" ry="34.75"/>
    <ellipse class="cls-1" cx="145.77" cy="86.51" rx="13.9" ry="34.75"/>
    <path class="cls-4" d="M57.74,160.44c2.05,2.83,23.02,30.75,60.23,30.75,3.49,0,38.41-.61,60.23-30.75"/>
  </g>
</svg>