<?xml version="1.0" encoding="UTF-8"?>
<svg id="Capa_2" data-name="Capa 2" xmlns="http://www.w3.org/2000/svg" viewBox="0 0 170.04 170.73">
  <defs>
    <style>
      .cls-1 {
        fill: #0511f2;
      }

      .cls-2 {
        fill: #f3f3f2;
      }

      .cls-3 {
        fill: #f2f2f0;
      }

      .cls-4 {
        fill: none;
        stroke: #f2f2f0;
        stroke-miterlimit: 10;
        stroke-width: 5px;
      }
    </style>
  </defs>
  <g id="Capa_1-2" data-name="Capa 1">
    <g>
      <circle class="cls-1" cx="84.24" cy="85.86" r="82.91"/>
      <g>
        <path class="cls-2" d="M169.57,85.23c-.02.79.39.51.47.63-.13-1.33-.58-.59-.47-.63Z"/>
        <polygon class="cls-2" points="167.55 72.37 167.75 72.57 167.01 70.77 167.55 72.37"/>
        <path class="cls-2" d="M164.79,60.61c-.38,1.3,1.37,4.16,1.55,6.34l-.08.38.78.82c-.35-1.27-.76-2.72-1.22-4.05-.47-1.33-.86-2.58-1.03-3.49Z"/>
        <path class="cls-2" d="M164.05,53.98c-.11.48-.74-1.23.48,1.45-.03-.15-.03-.19-.04-.28-.1-.25-.23-.59-.44-1.17Z"/>
        <path class="cls-2" d="M164.49,55.15c.49,1.2-.09-.87,0,0h0Z"/>
        <path class="cls-2" d="M162.02,49.7l.93,1.45c0-.39-.59-1.8-.25-1.33-.85-1.55-.84-1.14-.68-.12Z"/>
        <path class="cls-2" d="M160.86,48.47c.17.24.33.49.48.74,0-.17-.07-.4-.48-.74Z"/>
        <path class="cls-2" d="M162.31,50.82l-.97-1.61c0,.27-.2.39.43.75-.25-.05.08.2.54.86Z"/>
        <path class="cls-2" d="M162.64,51.83c.26.93.61,2.1-.26.63,1.29,2.96,1.62,2.33.26-.63Z"/>
        <path class="cls-2" d="M163.89,60.25c.07.41.14.83.18,1.25l.52.97c-.13-.24-.25-.83-.36-1.35-.12-.51-.25-.94-.34-.87Z"/>
        <path class="cls-2" d="M157.26,40.19c-.19,0-.03.7-.13.91.28.32.54.65.8.99-.22-.62-.81-1.7-.66-1.89Z"/>
        <path class="cls-2" d="M157.13,41.09l-1.23-1.44c.88,1.42,1.15,1.62,1.23,1.44Z"/>
        <path class="cls-2" d="M160.01,48.55c.65.81,1.19,1.69,1.79,2.53-.67-1.03-1.32-2.07-2.06-3.05l.27.52Z"/>
        <path class="cls-2" d="M153.21,34.22l.91.66c-.51-.42-1.03-.83-1.57-1.21l.66.55Z"/>
        <path class="cls-2" d="M150.17,30.51c.74.41-.34-1.14.35-.62-.9-.95-1.81-1.65-2.65-2.23.81.7,1.52,1.6,2.3,2.85Z"/>
        <path class="cls-2" d="M146.48,26.66c.42.34.89.65,1.4.99-.44-.36-.89-.7-1.4-.99Z"/>
        <path class="cls-2" d="M154.18,36.97c0-.17.03-.54-.5-1.46l.08.85c.13.18.27.39.42.61Z"/>
        <path class="cls-2" d="M153.77,36.39v-.03c-.46-.66-.77-1.12-.91-1.31.11.17.39.57.91,1.34Z"/>
        <path class="cls-2" d="M154.29,37.12c-.04-.06-.07-.1-.11-.15,0,.08.02.12.11.15Z"/>
        <path class="cls-2" d="M158.07,44.07c-.76-.83-2.1-2.66-1.32-.58.64.53.19-.67,1.32.58Z"/>
        <path class="cls-2" d="M154.38,38.16c.35.56.67,1.14,1,1.71.07-.09.02-.48.41-.09-.47-.54-.92-1.09-1.41-1.62Z"/>
        <polygon class="cls-2" points="153.71 37.45 154.38 38.16 153.98 37.55 153.71 37.45"/>
        <path class="cls-2" d="M148.49,29.46c-.7-.53-1.33-1.23-2.1-1.96.73.87,1.48,1.78,2.2,2.63.2.03.71.25-.1-.67Z"/>
        <path class="cls-2" d="M151.11,32.78s-.1-.1-.14-.14c.04.11.09.2.14.14Z"/>
        <path class="cls-2" d="M138.81,20.32c.03.06.05.11.08.17.03-.01.05-.02.08-.03l-.15-.14Z"/>
        <path class="cls-2" d="M148.66,30.32c.5.7.91,1.02,1.33,1.3-.45-.46-.92-.95-1.39-1.5-.09-.01-.13,0,.06.2Z"/>
        <path class="cls-2" d="M144.28,24.71c.27.37.57.78.89,1.22-.19-.42-.69-1.19-.89-1.22Z"/>
        <path class="cls-2" d="M150.89,32.35s.06.06.09.09c-.1-.28-.12-.22-.09-.09Z"/>
        <path class="cls-2" d="M150.89,32.35c-.32-.31-.62-.51-.9-.73.35.39.68.74.99,1.03-.04-.1-.07-.21-.09-.3Z"/>
        <path class="cls-2" d="M134.65,20.52c.34-.21,2.35.8,3.48,2.4,1.6.99,1.55-.77.76-2.43-.16.1-.24.19-1.93-.83.44.56,2.98,3.16,1.51,2.36-2.06-1.51-1.54-1.43-2.37-2.38.53,1.03-3-1.43-3.01-.48.66.35,1.28.75,1.92,1.14-.04.11-.78-.24-.36.22Z"/>
        <path class="cls-2" d="M141.68,22.98l.62.52c-.61-.7-1-1.24-1.73-2.27-1.15-.74-1.45-.81-1.61-.77.98.89,2,1.75,2.96,2.67l-.24-.15Z"/>
        <path class="cls-2" d="M144.9,26.02c-.73-.17-2.27-1.34-1.74-.2,1.69,1.62,1.4.92,2.52,1.8-2.7-2.68.93.63-.8-1.54.57.49,1.05.97,1.51,1.42-.44-.53-.85-1.06-1.23-1.57.02.03.03.06.04.08h.01s0,.01,0,.01c.08.16.09.22-.02.06-.01,0-.05-.04-.06-.05-.06.02-.15,0-.24-.01-.7-.86-.04-.21.24.01.02,0,.06,0,.08-.01,0,0,0,0,0-.01-.93-.88-1.95-1.67-2.92-2.51.54.61,1.31,1.27,2.61,2.52Z"/>
        <path class="cls-2" d="M154.92,42.25c-.03-.12,0-.13.02-.15-.18-.18-.26-.23-.02.15Z"/>
        <path class="cls-2" d="M154.31,40.81c.2.2.47.3.91,1.07.31.72-.18.11-.28.21.39.38,1.25,1.43.55-.11l-.19-.19c-.69-1.35-1.3-3.3-1.11-3.11-.08.59-.1,1.08.12,2.13Z"/>
        <path class="cls-2" d="M149.87,33.2c-.69-.8-1.45-1.53-2.18-2.28l.76,1.45.12-.2c1.07,1.43,1.02.97,1.3,1.03Z"/>
        <path class="cls-2" d="M138.67,19.92l.61-.07c-.6-.25-1.24-.45-1.85-.67l1.24.74Z"/>
        <path class="cls-2" d="M135.36,17.39l.36-.22c-.34-.16-.69-.3-1.04-.45l.68.67Z"/>
        <path class="cls-2" d="M14.94,126.89l.54.71c-.24-.34-.41-.56-.54-.71Z"/>
        <path class="cls-2" d="M11.91,121.23l-.25-.05c.23.22.36.29.25.05Z"/>
        <path class="cls-2" d="M39.3,13.23c-1.35.42-2.96.78-2.58,1.06l.59.13c.76-.58,1.41-.94,1.98-1.19Z"/>
        <path class="cls-2" d="M3.03,69.56c.06-.12.13-.24.2-.36-.07-.34-.14-.67-.2-.96,0,.4-.02.84,0,1.32Z"/>
        <path class="cls-2" d="M4.63,70.82l-.58,1.64c.16-.36.35-.89.58-1.64Z"/>
        <path class="cls-2" d="M38.96,151.9c.36.08.72.16,1.09.21-1.33-.89-.86-.33-1.09-.21Z"/>
        <path class="cls-2" d="M96.38,1.44c-1.15-.32-2.07-.51-2.89-.63,1.39.43,2.47.94,2.89.63Z"/>
        <path class="cls-2" d="M9.65,126.92c.35.46.55.63.63.57-.36-.47-.6-.72-.63-.57Z"/>
        <path class="cls-2" d="M90.08.53c.2.06.41.1.62.15.87,0,1.74-.02,2.79.13-1.02-.31-2.23-.49-3.41-.28Z"/>
        <path class="cls-2" d="M150.93,130.84c.07-.07.13-.16.2-.21-.03-.06-.1.05-.2.21Z"/>
        <path class="cls-2" d="M168.28,97.16c-.02.38-.1,1.01-.17,1.59.07-.28.12-.76.17-1.59Z"/>
        <path class="cls-2" d="M121.15,8.57c.81.36.15.01,0,0h0Z"/>
        <path class="cls-2" d="M124.16,12.03c-.19-.04-.34-.05-.41.03.11-.06.25-.06.41-.03Z"/>
        <path class="cls-2" d="M81.38,3.08s-.05,0-.07,0c.26.08.21.06.07,0Z"/>
        <path class="cls-2" d="M122.25,9.34c-.27-.2-.59-.41-.95-.63.15.11.44.31.95.63Z"/>
        <path class="cls-2" d="M122.18,9.08c.26.15.47.27.67.39.13-.01.06-.1-.67-.39Z"/>
        <path class="cls-2" d="M120.02,8.08c.46.2.88.42,1.28.63-.15-.1-.2-.15-.15-.14-.24-.1-.57-.25-1.13-.49Z"/>
        <path class="cls-2" d="M94.95,166.73c.06,0,.12.01.18.02.82-.29.45-.21-.18-.02Z"/>
        <path class="cls-2" d="M24.95,30.84s.03-.05.05-.08c-.03.03-.07.06-.1.08h.05Z"/>
        <path class="cls-2" d="M23.2,33.29c.43-1.31.94-1.85,1.7-2.46-.53-.04-1.08-.09-1.61-.12l-.1,2.57Z"/>
        <path class="cls-2" d="M24.08,139.19l-1.07-1.83c2.13,1.49,3.15,2.97,2.28,1.15-.58.33-1.99-1.13-3.26-2.7-.64-.78-1.27-1.57-1.83-2.12-.53-.57-.99-.91-1.3-.77l-.57-1.29c.22.33.32.33.54.66-1.02-2.54-1.95-1.07-3.69-4.11-.55-1.09-.77-1.93-.23-1.3l-1.64-2.17c-.36-.7-.06-.64.3.05-.7-1.18-1.32-2.4-1.99-3.6h.05c-.47-.41-1.29-1.5-1.7-2.04-.26-1.04.35.42.39.11-.41-.65-.84-1.3-1.23-1.96,0-.5.24-.34.56.12.34.46.76,1.21,1.07,1.94.18-1.25-.09-1.63-.55-2.28-.42-.66-1.05-1.59-1.49-3.86.29.65.62,1.29.93,1.93.18-1.54-.61-3.01-.91-5.43-.06.59.4,4.95-.71,2.73-.12-.7-.38-1.57-1.05-2.76.46-.16,0-1.37-.48-2.92l.65-.06c-.66-1.63-.88-1.43-1.41-2.37-.38-1.93,0-2.42.35-2.95-.45-3.08-.4,2.28-1.17-1.35-.05-.65-.13-1.25-.23-1.83-.08-.58-.17-1.15-.28-1.72-.23-1.15-.57-2.36-.86-3.91.08-1.85.41.29.55-.38l-.63-1.58c-.02-.4.15-.28.23-.22-.27-1.36-.65-.08-.89-2.24-.35-.28-.16-1.41.1-2.78.3-1.37.52-2.99.22-4.34.23-.65.37.34.63.15-.25-3.68-.18-3.15-.49-6.23.24-.84.49-1.67.79-2.49-.81,1.79-.94-.68-1.02-2.89-.35.63-.65,1.17-.81,1.54.09-1.16.17-2.32.34-3.46.2-.39.33,0,.47.61,0-.24,0-.47,0-.65.51-1.15.72-.44.88.49-.22.38-.45.75-.66,1.12.23.91.52,1.76.92,1.66-.03-.23-.02-.66.03-1.12.06.24.13.39.21.3.09-.1,0-.48-.03-1.05l.87-.6-.23-.24c.47-1.4.93-2.79,1.5-4.15.04-.8.05-1.59.08-2.4.06-.8.11-1.62.2-2.5.08-.88.21-1.82.46-2.82.25-1,.51-2.12.97-3.31-.04,1.36.67.58,1.21.89-.58.49-.86,1.44-1.15,2.53-.31,1.09-.54,2.36-1.01,3.57.5-1.26.68-.88.67-.52.27-1.53.7-3.01,1.07-4.53.43.29.7-.77,1.41-1.78-.65.21-.44-.64-.01-1.78.4-1.16,1.18-2.52,1.46-3.44.35.05.45.61-.67,2.62,1.84-1.89.4-3.49,2.24-5.34-.27.49-.47.73-.43,1.01.2-.64.75-1.64,1.24-2.36.49-.72.96-1.16.87-.77l-.3.48c1.03-1.55,2.59-3.92,3.94-5.95,1.38-2.01,2.47-3.77,2.34-4.25.11.04.47,1.03.47,1.31.68-2.29,1.43-4.64,2.35-6.93.12.93,2.92.51,1.09,3.03.7-.56,1.49-1.3,2.66-2.77-.51.33-1.83.3-1.28-.33,2.23-.98,1.44-.81,3.97-2.18-.79.48-.8-1.03.33-1.96-.06.28.83.78.51,1.21.65-1.06,1.31-2.13,2.03-3.15-.58.71.47.84,1.29.6-.21.03.39-.44,1.14-1,.76-.54,1.68-1.14,2.03-1.46l-1.38.66c3.36-2.19,2.37-3.61,5.87-5.7-.31.45-.3,1.82,1.53.94.49-.96,2.26-4.5,5.45-6.43h.78c.8-.49,1.6-1,2.43-1.45-.67.69-1.9,2.03-3.22,3.33-1.31,1.32-2.64,2.76-3.61,3.66,1.45-.47.55.15,2.53-.9.84-.08-.87.97-1.44,1.29,1.57-.73,3.12-1.48,4.74-2.1-.24-.26.59-.82,1.44-1.38.87-.52,1.76-1.01,1.56-1.24-1.7.87-3.31,1.92-4.93,2.89-.25-.25.29-1.02,1.34-1.91.53-.44,1.17-.94,1.93-1.36.76-.42,1.6-.81,2.49-1.13.98-.1-.24,1.38-.08,1.56.19-.18.95-.65,1.75-.97.8-.33,1.6-.62,1.79-.59l-1.37.84c1.02-.21,1.74-.69,2.54-1.14.8-.44,1.69-.8,2.97-.84.83-.22,2.68.2,2.73-.22-1.53-.44-2.42-2.66-1.61-3.44.16,0,1.34-.08,2.61-.16,1.26-.09,2.64,0,3.16.08,1.51.34-1.86,1.79-.57,2.08.02-.19.75-.55,1.06-.68.92,0-.27.63,1.65.2.22-.72,3.98-.45.84-.69,1.89-.41,2.05-.17,4.3-.38-.77-.36,1.91-1.69,3.89-1.95-.11.18.34.39.56.49,1,0,1.89,0,2.71.02.82.04,1.58.12,2.33.18.75.06,1.49.12,2.28.18.78.09,1.61.17,2.54.25.33.18,2.09.54,1.3.76.54-.06,1.05-.22,2.19-.1,2.11.86-2.53-.23-.95.69.18-.36,2.99-.22,4.63-.13-.2-.33-1.12-.57-2.21-.63-1.09-.06-2.33-.03-3.15-.01.04-.42.79-.76,2.04-.98.62-.1,1.38-.21,2.22-.22.84,0,1.77.03,2.77.11,3.14.4,1.23.81,1.79.79,1.43.37,2.47.53,3.3.6.83.11,1.45.11,2.04.11,1.18.01,2.25.02,4.49,1.13,1.68,1.14-.27,1.04.01,1.54-1.24-.31-2.13-.71-2.93-1.08-.81-.34-1.52-.68-2.35-.9l1.97.82c-.83-.05-2.49-.38-3.34-.78.36.23,1.13.51,2.15.84.51.16,1.08.34,1.69.53.61.21,1.25.44,1.92.67.67.23,1.36.46,2.04.72.68.28,1.35.56,2.01.83,1.33.53,2.54,1.16,3.51,1.72.8.16,2.14.57,1.64.1l-1.33-.52c-1.02-.94,2.71.57,1.14-.36.96.24,1.94.57,3.01.96.53.2,1.08.43,1.64.7.55.3,1.1.63,1.67,1.03l.14.79c.04-.18-1.36-1.21-2.12-1.42,1.12.35,3.22,2.75,4.66,2.78-.46-.46-.92-.94-1.41-1.37.93.35,1.96.77,3.04,1.23,1.08.46,2.15,1.08,3.09,1.87-.56-1.14-.49-.27-1.53-1.86.79,1.54-5.29-3.42-3.72-1.33-.55-.8-1.19-1.26-1.88-1.75-.7-.48-1.45-1-2.35-1.83-.03.21.56.72-1.23-.31-.11.01-.34-.02-.48-.05-.05-.03-.07-.05-.12-.08.03.03.06.05.09.07-.09-.01-.1-.01.03.03.4.3.7.58.79.75-.56-.02-1.55-.43-2.57-.81-1.02-.37-2.03-.76-2.58-.88-1.07-.59.56,0,.04-.47-.55-.12-1.1-.23-1.65-.31.03-.47-2.74-1.88.04-1.07l-2.41-.97c-1.35-.76-3.33-1.53-4.63-1.74-1.16-.43-3.12-.37-2-.42l-2-.41-2.02-.32v-.12c-1.95-.52-4.04-.65-6.15-.94-2.13-.17-4.3-.51-6.56-1.04-.68,0-1.37.01-2.17,0-.8.01-1.71,0-2.84-.1l-.44-.4c-.87.02-2.18-.02-3.36-.06-1.19-.03-2.25-.05-2.61.2-.48-.23-1.26-.31-2.19-.31-.94-.01-2.04.08-3.16.27-1.12.18-2.29.34-3.35.57-1.06.22-2.03.41-2.8.5l-.02.52c-1.04.15-2.03.46-3.09.75-.52.16-1.06.32-1.63.49-.56.19-1.14.41-1.75.63l.27.39c-1.02.49-2.43.76-3.98,1.19-.78.2-1.6.41-2.43.63-.83.25-1.66.56-2.48.89.16-.25,1.02-.54,1.65-.67-1.08.15-2.12.48-3.14.89-1.01.44-1.97,1.01-2.93,1.55-.96.53-1.86,1.16-2.77,1.67-.91.52-1.83.94-2.74,1.27-.75.62-1.38.92-2.02,1.15.08-.05.14-.09.19-.14-.09.05-.21.12-.34.19-.41.14-.83.29-1.26.49.4-.12.76-.26,1.08-.39-.63.38-1.54,1.05-2.4,1.73l-.66-.15c-.07.05-.13.09-.21.15-1.01.44-.6.66.08.65-.43.35-.77.74-1.03,1.06-1.15-.11-2.2,1.83-3.62,1.93-.17.39-1.2,1.3-2.18,2.24-.94.99-1.82,2-1.76,2.51-.1-.06-.38.11.06-.28-.99.7-1.93,1.48-2.55,2.4l-.8-.09c-.46.8-.89,1.62-1.29,2.45-1.37.9-2,1.24-1.23-.24-1.09,1.64-1.55,2.28-1.96,2.87-.41.58-.8,1.1-1.57,2.58l-.21-.38c-.72.94-1.45,2.73-2.15,3.08-1.07.83-3.01,3.45-5.01,6.65-1.94,3.23-3.94,7.01-5.59,9.99.81-.36.35.29-.18,1.13-.51.85-1.13,1.88-.76,2.17-.4.27-.89,1.09-.71-.02-.54,1.65-.99,2.87-1.43,3.96-.44,1.09-.7,2.1-.66,3.35-.38.31-.19-.83-.44-.53-.02.29-.07,1.13-.33,1.43-.26.3-.08-.55-.05-1.12-.23.86-.36,1.54-.41,2.09-.03.55.02.96.11,1.27.18.63.55.87.91,1.08-.38.82-.61,1.46-.72,2.05-.08.6-.03,1.16.11,1.84-.36.56-.82,1.53-.52-.63-.07.3-.2.91-.36,1.66-.08.37-.16.78-.25,1.21-.06.43-.13.87-.19,1.3-.23,1.73-.37,3.33-.03,3.42-.19.37-.18,1.71-.13,2.03-.27,2.74-.23,2.98-.27,5.68l.12-.75c.72,1.07.17,2.23.31,4.4l-.08-.06c-.21,2.5-.02,3.03.05,3.56.05.26.09.52.11,1.03,0,.5.01,1.25.02,2.49l.44-.32c.54.17.53,1.25.47,2.66,0,1.4,0,3.12.44,4.48l.08-1.06c.29.73.2,1.85.05,3.01-.15,1.15-.38,2.36-.21,3.13.01.36-.3-.49-.47-.94.53,4.17.75.36,1.73,3.29-.16.64-1.05-.45-.49,1.56.04.54.78,1.9,1.56,3.46.87,1.53,1.69,3.3,2.01,4.71-.02-.68-.03-1.34.74-.12.93,1.95,1.65,5.8,3.36,7.13.08.28.07.4.02.44.52.67,1.24,1.83,2.03,2.83.79,1.01,1.55,1.93,2.01,2.23-.15.56.23,1.33.81,2.2.59.87,1.38,1.84,2.23,2.7.83.87,1.61,1.72,2.15,2.36.55.64.8,1.14.51,1.39.58.64,1.13,1.29,1.73,1.91l1.81,1.84h-.2c1.08,1.26,1.98,1.94,2.67,2.44.7.49,1.23.77,1.79,1.01.5.57,0,.32-.11.34,1.71,1.68,2.66,2.62,3.69,3.3,1.02.68,1.99,1.27,3.86,2.1l.05.64c.99.44,5.32,4.6,9.83,6.26-.07.03-.2.07-.57-.04,2.48.98,5.2,2.65,7.71,3.86,2.49,1.24,4.74,1.99,5.94,1.45,1.14.26,2.32.38,3.47.57-4.28-1.36.86-.57-.83-1.36.85.19,1.9.63,2.48.96.59.3.69.54-.37.3l-.3-.18c-1.03.77,5.34,1.64,5.1,2.19,8.72,1.67,17.47,2.47,25.83,1.61-.35-.2-.69-.4-1.03-.62.96-.08,1.92-.21,2.88-.31.78.07,1.1.44-.97.67,1.14.28,3.42-.79,3.44-.99,4.05-.42-1.43,1.12-.2.92l1.67-.35-.39-.02c.65-.27.99-.49,1.48-.69.49-.19,1.11-.39,2.33-.66,1.57-.21.89.26,1.51.14,0,.05.22.03.94-.2,1.19-.29,2.38-.62,3.57-.93l-1.58-.15c1.49-.71,3.31-.93,1.51-1.08,1.32.12,4.61-.84,7.65-2.1,1.53-.6,2.98-1.34,4.17-1.86,1.17-.56,2.04-1.02,2.42-1.11.46-.35.92-.68,1.41-.99.47-.33.95-.65,1.46-.97,1.01-.63,2.11-1.22,3.28-1.97-.64.27-1.33-.06.71-1.27,0,.78,1.02.36,2.25-.4,1.23-.77,2.75-1.73,3.79-1.98-.88.28.44-.81,1.64-1.84,1.2-1.04,2.19-2.11.89-1.56,1.58-1.22.42.3,1.77-.45,3.23-3.51,7.86-7.04,11.36-11.86-.08-.18-.9.43-.33-.72.89-.62,1.7-1.31,2.55-1.99.59-1.02-.17-1.42,1.47-2.88-.29.17-.71.42-.34-.26,3.51-4.59,6.09-9.97,8.15-15.5,2.07-5.55,3.63-11.24,5.36-16.93-.62,1.52-.46.46-.26-.74-.22.77-.43-.08-.69.03.42-1.58.88-3.17,1.25-4.78-.3-.48-.21-1.79-.12-3.05.1-1.26.07-2.48-.22-2.74l.07,1.55c-.35-1.04-.77-.34-1.25.56-.51.9-1.06,1.99-1.53,1.81.17.57.15,1.22.03,1.93-.13.71-.39,1.46-.62,2.26-.44,1.61-.99,3.34-.72,5.26-.33.76-.18-.74-.48-.35.27.99.07,2.1-.57,4.08l-.05-.25c-.27,1.43-.68,2.61-1.01,3.72-.32,1.11-.72,2.09-1.13,3.1-.4,1.01-.81,2.03-1.36,3.14-.53,1.12-1.07,2.38-1.83,3.82l.63-.25c-.64,1.25-.89,1.46-1.27,2-.01,1.77,1.66-3.56,1.78-1.91-.41.33-.87,1.05-1.36,1.97-.49.91-1.08,1.98-1.62,3.04-.53,1.07-1.18,2.06-1.71,2.86-.55.79-1.03,1.35-1.44,1.47-1.16,1.8.81-.24-.36,1.57l-.56.32.03.67c-.81,1.16-1.57,1.5-1.79,1.41.22-.26.5-.83.7-1.14-.67.64-1.39,1.7-1.99,2.65-.61.95-1.18,1.76-1.41,1.98l1.41-1.51c-3.26,4.9-8.48,9.81-12.43,13.9l.47-.11c-.75.8-1.32,1.31-1.8,1.67-.48.37-.85.62-1.24.87-.77.52-1.63.99-3.52,2.45l.11-.14c-.64.76-1.67,1.52-2.78,2.21.87-.87-2.18.79-1-.31-1.88,1.42-2.37,1.74-2.62,2.06-.27.29-.31.59-1.51,1.67h-.81c-.8.76-.77,1.03-2.92,2.12,1.66-1.1-1.63.12.19-1.17-1.22.33-2.23.73-3.1,1.15-.88.39-1.63.77-2.31,1.13-1.34.73-2.44,1.2-3.71,1-.92.85.14.64,1.31.29,1.17-.32,2.38-.91,1.82-.56.56-.04.19.31-.52.74-.72.4-1.78.84-2.55,1.05-.77.25-1.52.17-2.56.11-.52-.02-1.11-.02-1.81.06-.7.09-1.51.22-2.48.44.39-.08.4-.17.78-.25-.76.04-1.45.29-2.19.53-.74.25-1.53.47-2.48.41-.9.79-2.35.38-2.52,1.22l3.61-.83c-1.01.28-1.96.74-3.1,1.15-1.14.4-2.49.65-4.24.66.25-.19,1.25-.53,1.94-.74-1.03-.12-1.91.43-2.98.26.11-.39,1.22-.56,2.56-.76.67-.1,1.41-.19,2.1-.32.69-.16,1.35-.36,1.87-.6-.56-.08-1.56.27-2.32.45-.76.17-1.26.25-.76-.24-.72.64-1.71.73-2.83.81-1.13.03-2.38.02-3.71.54l.15-.49c-.42.12-1.3.37-2.09.37l1.4-.65c-2.17.57-4.21-.31-6.28-.13,2.18.05,2.43.19,2.36.38-.07.19-.46.43.47.58-5.46.54-3.11-1.2-9.11-1.44.81.02,3.03.52,1.74.65-1.15-.16-2.63-.53-3.3-.87-3.97-.4.55.56-1.18.64-1.28-.72-1.98-.07-3.77-.19l.08-.48c-1.12-.27-1.75-.38-2.15-.4-.4-.02-.56.07-.71.16-.29.18-.54.37-2.52-.28l1.86-.26c-.71-.11-1.43-.19-2.13-.33l.56-.42c-1.17-.11-1.93-.26-2.66-.46-.73-.2-1.44-.46-2.5-.92.4.49-.55.74-2.5.09-1.21-.75.88-.14-1.83-1.12.72-.06,1.49-.1,2.53.7.17-.11.71-.08.88-.19-1.31-.74-3.46-1.37-4.43-1.74.36.16.8.36,1,.52l-2.06-.46-2.04-.55c-.52-.44.01-.35.54-.27-.78-.31-1.43-.31-2.55-.84.46-.21.56-.58,2.23-.04-1.27-.38-2.49-.88-3.73-1.35-.16-.26-1.57-1.35-1.05-1.24-.88-.65-2.14-1.13-3.46-1.7-1.28-.63-2.69-1.27-3.79-2.23-.17-.02-.45-.14-.99-.45-.54-.41-1.06-.84-1.57-1.26-.49-.44-.98-.88-1.49-1.33-.51-.44-1.05-.87-1.63-1.31-.56-.45-1.18-.89-1.88-1.32-.3-.58-.63-1.13-.9-1.74-1.94-1.63,1.2,2.37-2.04-.36-2.33-1.92-.4-1.19-.99-2.08-.64-.41-1.53-.96-2.46-1.71-.92-.76-1.8-1.77-2.49-2.99.7.6,1.09,1.21,1.68,1.82ZM8.03,112.49c.15.27.39.67.58,1.06.21.38.37.77.32,1.02-.78-.45-.73-1.04-.9-2.08ZM4.99,65.17c.03.48-.19,1.15-.55,1.89.1-.57.25-1.22.55-1.89ZM112.05,5.28s-.05,0-.07,0c-1.3-.64-.84-.4.07,0ZM114.77,6.49c.3.05.31-.02.21-.13-.24.04-.86-.2-1.56-.51.16.19.48.42,1.34.64ZM104.56,168.23h-.59c1.23-.42.91-.22.59,0Z"/>
        <path class="cls-2" d="M4.45,70.66c-.11.16-.21.19-.3.21.04.25.13.27.3-.21Z"/>
        <path class="cls-2" d="M38.76,151.86l.07.06c.06,0,.1,0,.13-.02l-.2-.04Z"/>
        <path class="cls-2" d="M70.24,6.14c-.58.03-.92,0-1.15-.05,0,.12.27.17,1.15.05Z"/>
        <path class="cls-2" d="M129.29,12.77c-.55-.32-1.14-.59-1.71-.88.82.44,1.05.69,1.4,1.01.02-.12-.2-.46.31-.14Z"/>
        <path class="cls-2" d="M140.51,25.04c.24.14.42.39.65.53l.1-.21c-.85-.79-1.55-1.21-.76-.32Z"/>
        <path class="cls-2" d="M129.91,15.08c-.11.44,1,.9,2.1,1.63-.07-.04-.13-.09-.19-.14.64-.25-.61-.91-1.91-1.49Z"/>
        <path class="cls-2" d="M132.27,16.87c.34.22.69.45,1,.7.26-.1-.38-.33-1-.7Z"/>
        <path class="cls-2" d="M118.37,7.68c.54.36.57-.31.83-.01.86-.2-4.12-1.15-.83.01Z"/>
        <polygon class="cls-2" points="130.07 16.77 129.96 16.1 129.12 16.04 130.07 16.77"/>
        <path class="cls-2" d="M121.36,11.31l1.79,1.07c.01-.09.27-.01.58.1-1.14-.6-2.35-1.33-2.37-1.18Z"/>
        <path class="cls-2" d="M123.73,12.49c.59.32,1.14.64,1.5.75-.32-.17-1-.56-1.5-.75Z"/>
        <path class="cls-2" d="M127.61,15.37l-.46-.42-1.25-.76c.57.4,1.17.75,1.72,1.18Z"/>
        <path class="cls-2" d="M100.22,4.02l-2.27-.26c-.26.13.34.34,1.18.42.56-.02,1.4.06,1.09-.16Z"/>
        <path class="cls-2" d="M106.55,6.95c-.56-.27-.56-.38-.85-.64l-.23.58,1.08.06Z"/>
        <path class="cls-2" d="M100.17,5.56c-.26.13-3.27-.08-.49.38.25-.14,2.48.16.49-.38Z"/>
        <polygon class="cls-2" points="66.52 5.13 67.08 4.99 66.79 4.02 66.52 5.13"/>
        <path class="cls-2" d="M40.36,18.72c2.32-1.19.18-.87,2.33-1.87.39-.54-1.77.81-1.34.3-1.2,1.07-1.97,1.39-.99,1.56Z"/>
        <path class="cls-2" d="M41.35,17.16c.19-.17.39-.36.6-.57-.35.3-.51.46-.6.57Z"/>
        <path class="cls-2" d="M169.45,90.75c.13-.59.19-1.18.28-1.77l-.37,1.13c.04.21.06.42.09.64Z"/>
        <path class="cls-2" d="M168.8,87.33l.66-.41-.56-1.07c.02.4.06,1.17-.1,1.47Z"/>
        <path class="cls-2" d="M7.88,107.68l-.18-.08c-.09.29,0,.67.19,1.43v-1.35Z"/>
        <polygon class="cls-2" points="16.58 128.35 16.38 128.01 16.28 128.94 16.58 128.35"/>
        <path class="cls-2" d="M28.98,142.51c-.55-.53-1.26-1.09-1.77-1.67,1.21,1.15,1.42,2.33,1.77,1.67Z"/>
      </g>
    </g>
    <ellipse class="cls-3" cx="64.48" cy="62.43" rx="9.88" ry="24.7"/>
    <ellipse class="cls-3" cx="103.99" cy="62.43" rx="9.88" ry="24.7"/>
    <path class="cls-4" d="M41.43,114.97c1.46,2.01,16.36,21.86,42.81,21.86,2.48,0,27.3-.44,42.81-21.86"/>
  </g>
</svg>