<?xml version="1.0" encoding="UTF-8"?>
<svg id="Capa_2" data-name="Capa 2" xmlns="http://www.w3.org/2000/svg" viewBox="0 0 212.51 314.88">
  <defs>
    <style>
      .cls-1 {
        fill: #212cf3;
      }
    </style>
  </defs>
  <g id="Capa_1-2" data-name="Capa 1">
    <g>
      <path class="cls-1" d="M86.77.74c.51-.54.02-.61.03-.74-.73,1.01.07.79-.03.74Z"/>
      <polygon class="cls-1" points="79.58 10.73 79.59 10.46 78.75 12.11 79.58 10.73"/>
      <path class="cls-1" d="M72.18,19.49c1.25-.37,2.59-3.25,4.11-4.65l.34-.15.16-1.08c-1.53,1.96-3.32,4.67-4.6,5.88Z"/>
      <path class="cls-1" d="M67.05,23.17c.46-.11-.67,1.17.99-1.03-.11.09-.15.11-.22.15-.16.19-.38.45-.77.88Z"/>
      <path class="cls-1" d="M67.82,22.29c.76-.94-.69.45,0,0h0Z"/>
      <path class="cls-1" d="M64.34,26.66l.84-1.38c-.34.15-1.28,1.21-1.03.73-.95,1.34-.61,1.18.2.65Z"/>
      <path class="cls-1" d="M63.76,28.14l.45-.7c-.15.07-.3.22-.45.7Z"/>
      <path class="cls-1" d="M65.17,25.97l-.96,1.48c.24-.1.43.03.46-.67.07.25.14-.15.5-.81Z"/>
      <path class="cls-1" d="M65.9,25.28c.69-.58,1.51-1.4.67-.02,1.89-2.39,1.22-2.37-.67.02Z"/>
      <path class="cls-1" d="M72.36,20.42l.93-.78.48-.94c-.24.47-1.63,1.63-1.41,1.72Z"/>
      <path class="cls-1" d="M57.66,33.99c.05.17.65-.15.88-.11l.63-1.01c-.47.39-1.28,1.21-1.5,1.12Z"/>
      <path class="cls-1" d="M58.54,33.88l-.94,1.51c1.04-1.18,1.13-1.48.94-1.51Z"/>
      <polygon class="cls-1" points="64.18 28.87 65.63 26.31 63.83 29.3 64.18 28.87"/>
      <path class="cls-1" d="M55.41,36.36c.05-.11.06-.23.06-.36,0,.19-.06.36-.2.49.06-.04.11-.09.14-.14Z"/>
      <path class="cls-1" d="M52.55,35.26c.79,0-.75-.84.04-.71-1.14-.41-2.19-.57-3.14-.71.96.26,1.93.68,3.1,1.42Z"/>
      <path class="cls-1" d="M47.88,33.56c.48.12,1,.2,1.57.29-.51-.14-1.03-.24-1.57-.29Z"/>
      <path class="cls-1" d="M56.16,36.98c-.08-.05-.27-.19-.46-.13.08.12.18.23.29.31.05-.06.11-.12.17-.19Z"/>
      <polygon class="cls-1" points="56.01 37.18 55.99 37.17 55.81 37.37 55.56 37.26 55.81 37.38 56.01 37.18"/>
      <path class="cls-1" d="M56.2,36.94l-.04.05s.06.02.04-.05Z"/>
      <path class="cls-1" d="M60.91,32.15c-.48.94-1.68,2.76-.05,1.4.25-.76-.67.02.05-1.4Z"/>
      <path class="cls-1" d="M56.79,37.07c.07-.06.34-.36.54-.57l.64-.68c-.11-.04-.45.11-.21-.36l-.53.86c-.16.26-.41.64-.44.75Z"/>
      <polygon class="cls-1" points="56.56 37.55 56.79 37.07 56.54 37.31 56.56 37.55"/>
      <path class="cls-1" d="M50.69,35.13c-.82-.13-1.64-.45-2.58-.8.96.48,1.96.94,2.94,1.34.19-.07.71-.12-.36-.54Z"/>
      <path class="cls-1" d="M54.32,36.74c-.05-.01-.12-.03-.18-.05.09.08.17.12.18.05Z"/>
      <path class="cls-1" d="M39.02,30.63s.08.09.12.13c.02-.02.04-.04.06-.05l-.18-.08Z"/>
      <path class="cls-1" d="M51.19,35.81c.71.38,1.2.46,1.67.51-.57-.19-1.17-.4-1.81-.66-.08.03-.11.06.14.14Z"/>
      <path class="cls-1" d="M45.27,32.71c.35.24.76.49,1.2.74-.33-.28-1.02-.79-1.2-.74Z"/>
      <path class="cls-1" d="M53.94,36.49s.08.02.12.03c-.21-.18-.2-.13-.12-.03Z"/>
      <path class="cls-1" d="M53.94,36.49c-.41-.1-.75-.12-1.08-.16.47.15.9.28,1.29.37-.08-.07-.16-.15-.21-.21Z"/>
      <path class="cls-1" d="M35.23,32.04c.28-.31,2.37.14,3.9,1.23,1.77.4,1.18-1.25,0-2.51-.12.14-.18.29-1.98-.19.52.44,3.6,2.01,2.02,1.76-2.34-.73-1.8-.89-2.82-1.53.75.84-3.15-.51-2.93.36l2.08.57c0,.12-.79,0-.28.31Z"/>
      <path class="cls-1" d="M42.38,32.12l.72.24c-.78-.39-1.29-.77-2.23-1.49-1.24-.3-1.54-.26-1.67-.17l3.44,1.46-.26-.04Z"/>
      <path class="cls-1" d="M46.26,33.65c-.71.18-2.47-.34-1.61.51,2.08.81,1.58.26,2.89.59-3.37-1.26,1.05.17-1.27-1.04.68.2,1.28.42,1.84.63-.58-.29-1.13-.59-1.65-.88.03.02.04.04.07.06h.02s0,.01,0,.01c.12.11.16.16,0,.06-.01,0-.05-.01-.07-.02-.05.05-.13.07-.21.09-.93-.48-.11-.17.21-.09.02-.01.05-.02.06-.04,0,0,0,0-.01-.01l-3.43-1.14c.68.34,1.57.69,3.16,1.29Z"/>
      <path class="cls-1" d="M60.33,35.61c-.1.06-.12.04-.15.02-.11.21-.14.3.15-.02Z"/>
      <path class="cls-1" d="M59.17,36.58c.12-.24.13-.52.72-1.14.58-.48.16.14.29.2.24-.47.92-1.57-.28-.48l-.12.23c-1.05,1.01-2.66,2.09-2.54,1.86.57-.07,1.02-.18,1.93-.67Z"/>
      <path class="cls-1" d="M53.46,37.73l-2.86-.94,1.27.92v-.24c1.56.73,1.32.33,1.58.25Z"/>
      <polygon class="cls-1" points="38.79 30.3 39.33 30.03 37.48 29.97 38.79 30.3"/>
      <polygon class="cls-1" points="35.16 28.88 35.44 28.57 34.39 28.4 35.16 28.88"/>
      <path class="cls-1" d="M76.06,123.39c.07.04.13.07.19.1-.08-.07-.14-.09-.19-.1Z"/>
      <path class="cls-1" d="M74.13,120.24l-.25-.03c.25.19.38.26.25.03Z"/>
      <path class="cls-1" d="M22.16,77.18c-1.11.74-2.47,1.47-2.03,1.64l.59-.02c.52-.74,1-1.23,1.45-1.62Z"/>
      <path class="cls-1" d="M37.44,94.23c-.13-.01-.26-.03-.4-.04-.27.22-.52.43-.74.61.34-.17.73-.37,1.14-.57Z"/>
      <path class="cls-1" d="M37.89,92.27l1.71-.13c-.39,0-.94.04-1.71.13Z"/>
      <path class="cls-1" d="M78.58,105.81l-.37-1.06c-.11,1.61.16.92.37,1.06Z"/>
      <path class="cls-1" d="M15.14,34.24c.44,1.03.85,1.82,1.24,2.49-.49-1.27-.74-2.38-1.24-2.49Z"/>
      <path class="cls-1" d="M72.8,126.88c.5.65.72.85.76.72-.48-.63-.79-.97-.76-.72Z"/>
      <path class="cls-1" d="M18.06,39.45c-.07-.19-.15-.36-.22-.55-.49-.65-.97-1.31-1.47-2.17.36.94.86,1.96,1.69,2.72Z"/>
      <path class="cls-1" d="M83.08,49.12c.03-.11.04-.2.07-.29-.06-.03-.07.09-.07.29Z"/>
      <path class="cls-1" d="M90.13,12.69c0,.36-.04.95-.08,1.51.05-.27.08-.72.08-1.51Z"/>
      <path class="cls-1" d="M19.81,22.42c1.31.5.21.03,0,0h0Z"/>
      <path class="cls-1" d="M23.77,25.89c-.18-.02-.33-.01-.39.07.1-.07.23-.09.39-.07Z"/>
      <path class="cls-1" d="M24.7,45.03s.02.04.04.06c-.06-.25-.05-.21-.04-.06Z"/>
      <path class="cls-1" d="M21.71,23.41c-.46-.24-1-.51-1.61-.79.26.14.76.39,1.61.79Z"/>
      <path class="cls-1" d="M21.52,23.11c.33.15.59.27.83.38.06-.01.08-.04-.01-.09-.05-.02-.12-.05-.22-.09-.15-.05-.35-.12-.6-.2Z"/>
      <path class="cls-1" d="M18,21.71c.74.3,1.44.6,2.1.91-.25-.13-.36-.2-.29-.19-.38-.15-.92-.36-1.82-.71Z"/>
      <path class="cls-1" d="M117.45,73.29c.06,0,.12,0,.18,0,.77-.37.42-.26-.18,0Z"/>
      <path class="cls-1" d="M12.49,95.62s0-.02,0-.04c-.02.01-.04.03-.06.04h.05Z"/>
      <path class="cls-1" d="M12.1,96.58c-.53-.21-.07-.65.33-.95-.58.04-1.23.17-1.95.37.36.4.9.59,1.62.58Z"/>
      <path class="cls-1" d="M77.68,122.72c-.14.1-.27.12-.4.08-.26-.84-.35-1.04-.43-1.2-.08-.16-.16-.15-.42-.42.57.6.63,1.03.63,1.46,0,.44-.03.7.26,2.17.04.24.1.55.2.96l-.44-1.24c.07.14.04-.07.11.07-.4-1.26-.28-.61-.31-.08,0,.58-.14,1.03-.62.08-.32-.72-.42-1.25-.21-1.21-.21-.12-.46-.32-.75-.57-.18-.34.04-.43.19-.15l-.54-.76-1.12-1.71h.05c-.49-.38-1.46-1.33-1.92-1.8-.38-.98.4.37.4.05l-1.47-1.75c-.19-.97,1.09.44,1.87,1.8.04-2.51-1.28-1.41-3.01-5.7l1.27,1.72c-.07-1.58-1.19-2.84-2.05-5.15.09.62,1.52,4.74-.06,2.84-.28-.64-.72-1.44-1.65-2.42.4-.27-.38-1.3-1.25-2.66l.6-.24c-1.08-1.39-1.28-1.1-2.07-1.82-.97-1.69-.77-2.29-.65-2.9-1.56-2.7.46,2.25-1.59-.82-1.16-2.33-2.34-3.74-4.31-6.18-.77-1.66.5.06.31-.59l-1.28-1.1c-.2-.34,0-.32.1-.3-.44-.52-.59-.46-.79-.49-.1-.01-.21-.04-.38-.18-.08-.07-.18-.16-.3-.29-.11-.12-.32-.41-.52-.69-.42-.1-.87-1.12-1.59-2.68-.9.08-2.03.2-3.22.43-.68.13-1,.2-1.4.33-.39.12-.75.28-1.09.47-.67-.02.21-.46-.04-.65-3.39,1.37-2.92,1.11-5.64,2.51l-2.56.2c1.92.02-.25,1.14-2.16,2.09.7.07,1.29.13,1.68.13l-3.15,1.13c-.41,0-.14-.3.32-.69-.21.11-.4.21-.55.29-1.21.05-.7-.45.04-1,.42.03.85.07,1.26.1.7-.57,1.35-1.17,1.09-1.5-.19.12-.58.28-1.02.43.18-.15.29-.28.18-.32-.13-.04-.43.18-.92.47l-.9-.51-.11.32-4.33.61c-2.85,1.44-5.23,3.11-9.95,4.58,1.06-.8.05-.89-.03-1.51,1.47.31,3.65-1.18,6.16-1.67-1.31.25-1.1-.1-.79-.29l-4.29,1.67c-.02-.52-1.03-.14-2.24-.06.56.38-.23.74-1.37,1.11-.57.17-1.23.36-1.86.54-.31.1-.61.19-.9.27-.26.09-.58.19-.69.26-.03-.08-.04-.16-.02-.25.02-.09.05-.17.24-.27.34-.21.98-.43,2.09-.66-.65-.03-1.16.07-1.59.24-.21.09-.41.19-.6.3-.11.06-.16.11-.2.16l-.15.15c-.39.41-1.15.93-1.82.77.36-.1.55-.09.74-.31-.45.26-1.24.47-1.74.54-.51.07-.69-.03-.29-.28l.32-.09c-.91.17-2.2.48-3.75.96.35-.5.62-.96.74-1.3.11-.34.09-.58-.26-.52.2-.07,1.72-.45,2.02-.54-1.21-.05-1.37-1.33-.49-3.85.11.43.99.36,1.51.63.55.24.85.72.63,1.31.2-.15.4-.3.58-.51.08-.07.64-.79,1.11-1.55-.46.39-1.77.45-1.29-.21,2.07-1.19,1.33-.91,3.64-2.57-.7.58-.93-.92,0-1.97-.01.28.94.64.7,1.11l1.41-3.41c-.41.8.63.73,1.38.34-.4.14,1.98-2.31,2.5-3.1l-1.16.97c2.69-2.93,1.32-4.02,3.91-6.99-.13.51.33,1.82,1.73.38.15-1.07.51-4.89,2.42-7.84l.68-.3,1.44-2.29c-.41,1.83-2.03,6.58-3.14,8.99,1.16-.97.56-.07,1.98-1.79.74-.4-.42,1.23-.83,1.74l3.5-3.83c-.66-.26,2.04-3.46,1.49-3.67l-3.1,4.75c-.66-.26.64-3.72,3.1-6.45.81-.54.46,1.31.68,1.39.03-.13.17-.38.36-.68.21-.33.37-.58.81-1.14.75-.99,1.51-1.9,1.76-2.08l-1.16,1.93c.87-.88,1.46-1.75,1.95-2.52-.57-.71-1.13-1.37-1.63-2.09-.25-.36-.49-.73-.72-1.15-.13-.24-.19-.37-.26-.54-.07-.17-.13-.34-.19-.53-.41-.74-.6-2.61-1.01-2.52.08,1.58-1.8,3.06-2.77,2.58-.11-.28-1.72-4.17-1.91-5.19-.23-1.5,2.32,1.02,2.14-.26-.18.05-.78-.48-1.01-.72-.34-.84.68.01-.41-1.59-.75.09-2.03-3.37-.97-.47-1.16-1.51-.94-1.78-2.14-3.66,0,.83-2.33-.9-3.49-2.41.21,0,.17-.48.15-.71-1.99-3.33-2.83-5.26-4.73-8.34-.04-.37-.79-1.96-.15-1.48-.38-.38-.83-.66-1.43-1.6-.64-2.15,1.39,2.07,1.12.29-.21.04-.7-.5-1.28-1.2-.28-.36-.59-.75-.9-1.13-.15-.19-.3-.38-.44-.56-.12-.14-.24-.28-.35-.4-.09.15-.05.37.13.73.18.35.45.76.76,1.19.62.86,1.41,1.77,1.93,2.38-.36.23-1.09-.13-2.02-.92-.97-.86-1.92-1.77-3.55-4.04-2.38-3.43-.18-1.32-.7-1.93-1.49-2.53-2.75-4.02-4.05-5.57-1.27-1.51-2.54-3.02-3.62-4.91.57.25,1.27.58,2.08.98,1.81,1.03,2.28,1.51,2.59,1.9.3.39.43.69,1.03,1.15-.56-.17-1.13-.4-1.74-.68.55,1.05.55,1.57,1.31,2.77l-.66-1.54c.86,1.05,1.97,2.57,2.16,3.18,0-.39-.86-1.87-1.97-3.69,2.67,1.12,6.01,2.46,8.16,3.61.56.03,1.83.35,1.26-.12l-1.32-.46c-.68-.51-.12-.44.51-.32.61.12,1.24.27.24-.24,1.04.26,2.15.55,3.35.85,1.04.29,2.15.67,3.31,1.28l.22.75c.02-.19-1.44-.98-2.18-1.08,1.11.16,3.38,2.27,4.78,1.98l-1.53-1.08c1.83.42,4.2.68,6.27,1.73-.74-.96-.52-.14-1.77-1.41.98,1.35-5.45-2.26-3.69-.54-1.25-1.4-2.56-1.42-4.33-2.9-.01.21.58.65-1.18-.17-.1.02-.32.01-.46,0-.08-.04-.11-.05-.18-.09.05.03.1.06.15.09-.15-.03-.13-.01.03.02.39.26.7.5.8.66-.27.01-.63-.04-1.09-.15-.64-.19-1.34-.42-2.02-.65-1.38-.47-2.71-.95-3.31-1.07-1.56-.74.5-.05-.47-.68-.65-.13-1.25-.25-1.81-.35-.31-.37-1.57-1.08-2.38-1.59-.79-.5-1.12-.78.83-.13l-3.81-1.57c-1.84-.94-4.14-1.99-5.83-2.66.46.73.94,1.43,1.4,2.07.41.76,1.35,2.03,1.94,2.81.59.78.88,1.12.08.17l3.81,5.61h-.14c.79,1.29,1.68,2.65,2.57,3.98.77,1.14,1.55,2.29,2.35,3.46,1.14,1.66,2.23,3.42,3.02,5.47.77,1.02,1.57,2.06,2.59,3.93l-.11.56c.97,1.31,2.25,4.36,2.96,4.74.04,2.04,3.98,6.84,5.33,9.37l.49-.18c1.02,1.69,2.13,3.22,3.6,5.19l.3-.36c.15.17.34.41.45.57.09.11.17.23.25.37.16.27.3.56.42.84-.32.28-.65.57-1,.87-.04.03-.22.22-.38.38l-.46.5c-.31.34-.61.68-.9,1.04.02-.28.6-.9,1.06-1.29-3.35,2.39-4.87,6.9-7.76,9.19-.46.79-.92,1.26-1.41,1.67.05-.06.1-.13.13-.19-.06.07-.15.17-.24.28-.32.25-.65.51-.99.8.33-.22.63-.44.86-.65-.44.54-1.08,1.38-1.66,2.24l-.65.03c-.05.07-.09.12-.14.19-.79.66-.35.77.27.59-.28.45-.51.87-.66,1.23-1.13.13-1.55,2.24-2.91,2.56-.14.79-3.12,4.17-2.82,5.14-.11-.04-.34.15.01-.28-.82.82-1.63,1.63-2.12,2.58l-.78-.02-.5,1.23-.25.61c-.08.2-.23.49-.33.71-1.54,1.25-2.55,2.11-1.54.18-1.43,2.26-1.93,2.95-2.46,3.69-.49.68-.99,1.39-1.59,2.65l-.65.15c-.48.58-.84,1.22-1.19,1.78-.36.57-.72,1.07-1.42,1.65-.49.44-1.03.97-1.63,1.6,1.88-.26,6.1-1.3,10.54-2.37,1.12-.27,2.26-.54,3.4-.81l1.73-.4c.43-.09.86-.19,1.28-.28,1.59-.34,3.13-.63,4.54-.81-1.48-.84,3.01-.2,3.04-1.14.43.18,1.33.12.38.6,3.1-1.04,4.87-.75,6.87-2.03.43.18-.58.56-.22.64.24-.12.95-.48,1.32-.4.36.08-.41.34-.88.58,3.23-.84,3.35-1.75,3.4-2.58,1.73-.04,2.54-.29,3.6-1.09.63.11,1.65.14-.34.73,1.14-.24,7.01-1.33,6.97-1.98.39.07,1.59-.34,1.87-.49,1.28-.29,1.97-.44,2.66-.6.26-.06.52-.12.83-.2.27-.07.58-.16.99-.27h-.43c.29-.35.62-.54.95-.64.17.24.32.57.49.94.09.18.18.37.28.56.12.21.19.34.4.64h-.1c2.03,4.32,1.31,1.59,3.24,5.91l.27-.47c1.11-.17,1.67,3.85,3.44,5.95l-.28-.98c1.08,1.08,1,4.27,1.67,5.6.1.32-.39-.36-.69-.71,1.54,3.64.8.1,2.46,2.49,0,.63-1.1-.13-.12,1.56.28.97,3.93,4.24,4.79,6.86-.09-.64-.18-1.27.7-.23.59.86,1.11,2.17,1.71,3.42.15.31.3.62.46.92.09.16.18.32.27.47.13.21.26.42.39.63.52.81,1.05,1.49,1.52,1.86.16.4.21.6.19.69,1.37,1.81,4.1,5.94,4.58,5.87.51,1.86,1.56,3.74,2.63,5.34.11-2.33.1-5.24.16-7.13.06-1.9.21-3.01.67-2.3l.45-7.25.14.22c.04-.48.08-.92.11-1.32.02-.33.04-.63.04-.91.01-.56,0-1.02-.03-1.43-.07-.81-.21-1.37-.35-1.93.16-.71.26-.18.34-.11.64-4.51.61-4.97.12-8.83l.52-.36c-.21-1.05,1.25-6.5,1-10.99.05.05.14.15.19.51-.11-2.49.44-5.41.82-7.97.09-.64.18-1.26.24-1.84.06-.56.11-1.25.08-1.3-.04-.39-.21-.8-.58-1.41,0-.02,0-.05-.02-.07.24-.14.51-.28.82-.43.31-.15.59-.3,1.18-.52-.25.05-.47.09-.66.13-.14.02-.26.03-.36.05-.21.02-.34.01-.43-.01-.17-.05-.11-.17.03-.31.25-.28.96-.7.08-.64,1.58-.5,4.35-.51,2.36.08h-.34c-.51,1.09,5.25-.96,5.29-.31,8.18-2.06,16.28-3.52,23.96-5.37l-1.06-.49,2.68-.62c.74,0,1.08.32-.84.76,1.1.16,3.12-1.12,3.13-1.29.29-.05.54-.09.75-.12.24-.03.44-.06.6-.08.33-.04.51-.03.57,0,.13.06-.2.25-.69.46-.25.1-.54.22-.8.33-.17.08-.34.16-.47.22-.25.12-.35.19-.07.12l2.12-.58-.59.06c1.85-.76,1.69-1.05,4.98-1.82,2.29-.41,1.78.03,2.68-.17.08.03.43-.03,1.4-.32l5.41-1.27-3.53.27c1.39-.64,4.45-1.06.5-.77.81-.05,1.77-.18,2.86-.36-1.49-.88-5.41-2.5-8.83-3.88-3.42-1.38-6.6-2.63-6.81-2.86-2.15-.42-4.12-1.23-6.54-2.27.56.36.68,1.11-1.4.18,1.28-.93-3.63-2.11-4.97-3.69,1.28,1.21-6.04-2.29-4-.48-1.71-.82.08-.51-1.13-1.34-2.19-.61-4.46-1.63-6.84-2.73-1.19-.55-2.41-1.11-3.65-1.69-.63-.27-1.26-.55-1.89-.82l-.96-.39-.49-.19-.24-.08c-.16.12.26.59-.56.53-.28-.32-.46-.61-.56-.86.12-.23.23-.43.34-.6-.03-.21-.28-.26-.43-.44-.08-.1-.13-.19-.12-.4.02-.29.1-.66.29-1.15-.17.27-.42.68-.42-.06,1.65-10.84.93-22.32,3.34-33.27-.45,1.47-.41.47-.34-.67-.14.74-.43-.05-.68.08l1-4.58c-.6-.89.32-4.97-.28-5.5v1.48c-.6-2.01-1.85,2.61-2.78,2.25.69,2.25-1.67,5.67-.72,9.34-.25.78-.26-.7-.51-.29.34.94.35,2.04.02,4.06l-.08-.24c-.32,5.72-.9,8.14-1.64,14.54l.51-.44c-.16,1.37-.33,1.65-.5,2.29.6,1.63.32-3.87,1.01-2.37-1.09,1.76-.72,9.72-1.91,10.88-.16,2.12.59-.58.43,1.54l-.34.54.34.56c-.04.37-.09.6-.17.96-.08.38-.16.71-.25.99-.17.55-.35.9-.48.97.07-.55.04-1.54.06-2.14-.24,1.25-.37,3.03-.45,4.64,1.05.39,2.07.77,2.9,1.07.4.15.76.28,1.04.39.29.11.51.21.56.25l-2.88-1.37c1.02.39,2.08.79,3.15,1.2.71.28,1.43.56,2.16.85,1.45.59,2.94,1.19,4.43,1.79,2.97,1.2,5.93,2.34,8.64,3.12l-.31-.37c4.12,1.23,3.08,1.52,7.51,3.12l-.18-.02c.96.15,2.16.52,3.34,1.03-1.2-.21,1.88,1.31.33.99,4.47,1.34,2.26.54,5.41.93l.52.61c.55.04.86.03,1.31.11.37.04.83.16,1.75.48-.85-.17-.64.06-.56.26.11.21.06.37-.66.31.47.41.83.61,1.3.78.46.16,1.01.29,1.55.43,1.05.26,2.2.6.9.72,4.41.69-.72-.91.57-.62.06-.16.75-.08,1.68.15.91.22,2.05.6,2.48.83.09.04.15.07.19.11-.87.12-2.36.15-3.72.18-1.39.04-2.56.05-3.39.26.2-.04.08-.09.27-.14-.58,0-.72.13-1,.27-.26.13-.67.29-1.24.2-.03.33-.38.4-.63.48-.4.11-.85.26-.88.67l.87-.26.57-.19,1.03-.35c-.26.12-.49.27-.78.46-.31.19-.55.37-1.17.63-1.08.47-2.35.91-4.05,1.09.22-.22,1.15-.66,1.79-.94-1.02.01-1.82.61-2.87.62.05-.42,1.11-.73,2.41-1.07.65-.17,1.36-.35,2.03-.55.33-.1.68-.22.95-.33.14-.08.26-.17.34-.26-.08-.02-.15-.03-.23-.02-.04,0-.08.01-.12.03-.07.02-.14.04-.21.06-.41.13-.83.29-1.2.42-.73.26-1.21.39-.78-.16-1.29,1.44-3.82.8-6.23,2.25l.06-.5c-.39.17-1.19.6-1.96.78l1.23-.94c-1.98,1.03-4.17.55-6.13,1.33,4.23-1.06,1.09.32,2.96.22-5.07,1.9-3.3-.47-9.09,1.19.78-.26,3.04-.45,1.85.06-1.14.18-2.65.36-3.39.29-3.85,1.05.71.33-.87,1.02-1.46-.24-1.85.7-3.5,1.29l-.13-.47c-4.49.79-.93,1.26-4.99,1.88l1.52-1.06-2.03.68.3-.64c-.51.23-.95.4-1.34.55-.43.15-.63.22-1.28.39-1.12.29-2.23.5-3.92.85-.01.1-.03.26-.05.42.19-.3.39.01.52.71.13.71.19,1.76.09,3.15-.03.12-.05.22-.07.3-.02.06-.04.11-.06.15-.04.08-.07.11-.1.13-.06.03-.1-.02-.14-.03-.07-.01-.11.16-.18,1.59-.13-.33-.27-.68-.32-1.1-.02-.21-.02-.43.02-.68.02-.09.06-.36.1-.56.05-.22.11-.44.18-.67-.14-.23-.22-1.1-.36-1.4-.12.58-.22,1.28-.3,2.02-.03.28-.05.57-.08.85-.01.22-.03.44-.04.66-.04.87-.04,1.69-.07,2.21.05-.4.11-.87.19-1.11l.37,4.18c-.23.64-.34.11-.44-.41,0,.84.17,1.43.12,2.67-.37-.35-.78-.3-.83-2.05l.15,3.96c-.19.25-.61,1.98-.72,1.46-.39,2.16.37,5.4-.15,8.27.06.16.12.46.13,1.08-.29,2.71-.94,5.08-.64,8.34l-.83,1.78c-.02,2.53,1.06-2.41,1.02,1.81,0,2.99-.68,1.07-.95,2.09.02.08.03.23.05.26l.07.09c.05.07.1.15.14.25.09.2.18.45.24.75.11.56.09,1.34-.2,1.37-.09-.55.02-.63,0-1.01ZM68.94,112.27c.4.46,1.31,1.32,1.3,1.84-.83-.29-.89-.88-1.3-1.84ZM32.76,94.43c.4-.26,1.09-.35,1.9-.36-.54.17-1.17.31-1.9.36ZM6.32,17.35s-.04,0-.05,0c-2.43-1.19-1.55-.75.05,0ZM10.79,19.39c.31.05.19-.07-.08-.25-.12.08-1.01-.27-2.11-.76.52.35,1.16.7,2.19,1.01ZM129.76,73.6l-1,.12c1.5-.51,1.24-.32,1-.12Z"/>
      <path class="cls-1" d="M37.82,92.5c.19.04.25.11.31.19.21-.14.19-.23-.31-.19Z"/>
      <path class="cls-1" d="M78.65,106.01v-.09c-.01-.05-.04-.08-.07-.1l.07.2Z"/>
      <path class="cls-1" d="M32.2,53.5c.24.53.34.85.37,1.08.12-.04.06-.31-.37-1.08Z"/>
      <path class="cls-1" d="M28.71,25.81l-1.71-.56c.81.31,1.06.52,1.44.76,0-.12-.25-.4.27-.2Z"/>
      <path class="cls-1" d="M41.99,34.45c.26.04.52.2.78.25l.02-.23c-1.04-.41-1.83-.53-.8-.01Z"/>
      <path class="cls-1" d="M29.64,27.92c-.02.43,1.07.73,2.26,1.13-.07-.03-.14-.05-.21-.08.56-.39-.75-.72-2.06-1.05Z"/>
      <path class="cls-1" d="M32.18,29.15c.37.13.74.27,1.08.43.22-.16-.42-.22-1.08-.43Z"/>
      <path class="cls-1" d="M15.72,21.11c.94.5.3-.44.91,0,.44-.1-1.14-.58-2.04-.74-.9-.16-1.19-.05,1.13.75Z"/>
      <polygon class="cls-1" points="30.07 29.54 29.85 28.91 29.04 29.02 30.07 29.54"/>
      <path class="cls-1" d="M21.03,25.46l1.81.89c0-.09.26-.04.56.04-1.14-.48-2.35-1.08-2.37-.93Z"/>
      <path class="cls-1" d="M23.4,26.39c.59.25,1.16.47,1.53.53-.32-.13-1.03-.39-1.53-.53Z"/>
      <polygon class="cls-1" points="27.48 28.65 26.97 28.33 25.67 27.76 27.48 28.65"/>
      <path class="cls-1" d="M14.51,29.61l1.41,2.01c.26.1.04-.47-.47-1.15-.4-.42-.95-1.18-.95-.86Z"/>
      <path class="cls-1" d="M13.41,25.23c.03.24-.17.13-.34.17l1.22.78-.88-.95Z"/>
      <path class="cls-1" d="M16.15,29.38c.15.07.58.53.81.73.24.2.31.19-.15-.52-.13-.05-.42-.37-.64-.57-.21-.19-.33-.26-.03.36Z"/>
      <polygon class="cls-1" points="32.54 57.28 32.24 56.81 31.42 57.41 32.54 57.28"/>
      <path class="cls-1" d="M24.84,82.05c1.86-1.82-.08-.88,1.66-2.47.21-.62-1.43,1.3-1.18.69-.82,1.36-1.46,1.9-.48,1.78Z"/>
      <path class="cls-1" d="M25.32,80.27c.13-.22.27-.45.4-.71-.24.39-.34.58-.4.71Z"/>
      <polygon class="cls-1" points="91.12 6.63 91.45 4.98 91.03 6.03 91.12 6.63"/>
      <path class="cls-1" d="M90.6,3.38l.68-.34-.51-1.04c0,.38,0,1.11-.16,1.39Z"/>
      <path class="cls-1" d="M67.6,107.64l-.2-.03c0,.31.19.65.58,1.33l-.38-1.3Z"/>
      <path class="cls-1" d="M76.46,122.84l-.04-.1c.02.41.07.85.13,1.32-.04-.42-.07-.83-.09-1.23Z"/>
      <path class="cls-1" d="M76.66,119.48c-.04.39-.04.81-.05,1.23v.32s0,.16,0,.16c0,.02,0,0,0,.02,0,.01.01.02,0,.03-.01-.01-.01-.02,0-.03h0s.02-.13.02-.13c.02-.09.03-.17.05-.25.07-.32.15-.59.21-.8.12-.42.14-.62-.24-.54Z"/>
    </g>
    <g>
      <path class="cls-1" d="M210.66,133.5c.53.07.36-.36.45-.43-.89.04-.43.54-.45.43Z"/>
      <polygon class="cls-1" points="201.85 133.97 202.01 133.81 200.7 134.16 201.85 133.97"/>
      <path class="cls-1" d="M193.66,133.52c.74.76,2.97.05,4.42.38l.23.18.69-.54c-1.78,0-4.1.25-5.34-.02Z"/>
      <path class="cls-1" d="M189.37,131.74c.25.29-.96.19,1.01.14-.1-.04-.12-.05-.18-.08-.18,0-.42-.02-.83-.06Z"/>
      <path class="cls-1" d="M190.21,131.8c.86.03-.55-.26,0,0h0Z"/>
      <path class="cls-1" d="M186.21,131.74l1.15-.19c-.23-.18-1.24-.27-.86-.37-1.17.07-.94.25-.29.55Z"/>
      <path class="cls-1" d="M185.11,132.2l.59-.07c-.1-.07-.25-.11-.59.07Z"/>
      <path class="cls-1" d="M186.96,131.97l-1.26.15c.16.12.16.36.58-.05-.11.21.14.02.68-.1Z"/>
      <path class="cls-1" d="M187.66,132.12c.63.19,1.45.33.29.52,2.18.02,1.89-.5-.29-.52Z"/>
      <path class="cls-1" d="M193.2,134.23l.84.26.75-.2c-.37.1-1.63-.28-1.59-.06Z"/>
      <path class="cls-1" d="M179.15,130.98c-.08.15.36.43.43.62l.85-.13c-.43-.13-1.24-.27-1.28-.5Z"/>
      <path class="cls-1" d="M179.59,131.61l-1.27.19c1.12.09,1.33-.02,1.27-.19Z"/>
      <polygon class="cls-1" points="184.86 132.98 186.95 132.55 184.46 132.97 184.86 132.98"/>
      <path class="cls-1" d="M177.5,130.75c.11-.05.21-.12.31-.22-.15.14-.31.22-.48.24.06,0,.12,0,.18-.02Z"/>
      <path class="cls-1" d="M177.05,129.3c.42.44.29-.83.61-.33-.27-.82-.7-1.47-1.09-2.06.3.65.46,1.39.48,2.39Z"/>
      <path class="cls-1" d="M175.97,125.91c.16.32.37.65.6,1-.16-.35-.35-.68-.6-1Z"/>
      <path class="cls-1" d="M177.29,131.67c.01-.09.07-.33-.03-.44-.07.14-.12.28-.15.42.05,0,.12.01.18.02Z"/>
      <polygon class="cls-1" points="177.11 131.66 177.12 131.65 176.92 131.63 176.88 131.44 176.92 131.63 177.11 131.66"/>
      <path class="cls-1" d="M177.34,131.67h-.04s0,.05.04,0Z"/>
      <path class="cls-1" d="M181.59,132.41c-.75.2-2.3.37-.83.82.55-.26-.3-.52.83-.82Z"/>
      <path class="cls-1" d="M177.39,132.21l.33.07.17.03.33.04c-.02-.11-.25-.29.12-.39l-.36.05c-.12.02-.13.04-.2.06l-.38.13Z"/>
      <polygon class="cls-1" points="177 132.32 177.39 132.21 177.16 132.16 177 132.32"/>
      <path class="cls-1" d="M176.17,128.22c-.33-.51-.51-1.12-.72-1.8.11.76.27,1.54.47,2.26.16.07.47.32.25-.46Z"/>
      <path class="cls-1" d="M176.72,130.77l-.03-.04s-.03.07.03.04Z"/>
      <polygon class="cls-1" points="173.65 119.64 173.6 119.77 173.68 119.78 173.65 119.64"/>
      <path class="cls-1" d="M175.87,128.83c.07.58.26.88.47,1.16-.15-.4-.3-.84-.42-1.31-.07-.03-.11-.03-.04.14Z"/>
      <path class="cls-1" d="M175.27,124.07c0,.31,0,.66.03,1.02.06-.32.11-.95-.03-1.02Z"/>
      <path class="cls-1" d="M176.78,130.63s.02.01.03.02c.07-.09.03-.07-.03-.02Z"/>
      <path class="cls-1" d="M176.78,130.63c-.12-.21-.29-.45-.44-.64.06.16.13.32.19.47.03.07.07.16.09.2l.06.06s.06-.07.1-.1Z"/>
      <path class="cls-1" d="M170.45,118.29c.41,0,1.15,1.36,1.07,2.73.62,1.16,1.66.02,2.08-1.25-.18,0-.33.05-.9-1.17-.09.5.26,2.96-.37,1.98-.65-1.64-.23-1.42-.25-2.3-.29.83-1.27-1.97-1.87-1.41l.64,1.42c-.1.06-.42-.43-.41,0Z"/>
      <path class="cls-1" d="M174.21,122.21l.19.51c-.09-.62-.05-1.09.04-1.95-.42-.82-.61-.97-.75-.99l.63,2.6-.1-.16Z"/>
      <path class="cls-1" d="M175.03,125.08c-.53-.3-1.04-1.51-1.28-.62.44,1.53.63.99,1.06,1.86-.76-2.46.42.65.18-1.21.2.47.34.9.47,1.31-.07-.46-.12-.91-.15-1.34,0,.03,0,.04-.01.06h0s0,.01,0,.01c-.02.12-.05.16-.05.04,0,0-.02-.04-.02-.05-.06,0-.13-.03-.19-.07-.11-.74.08-.14.19.07.02,0,.05.02.07.01h0s-.89-2.44-.89-2.44c.08.54.27,1.2.63,2.36Z"/>
      <path class="cls-1" d="M179.33,134.08c-.08-.04-.07-.07-.08-.1-.17.04-.23.08.08.1Z"/>
      <path class="cls-1" d="M178.29,133.76c.19-.05.36-.21.96-.14.52.16-.01.21,0,.35.37-.09,1.3-.24.16-.51l-.19.05c-.49-.1-1.14-.31-1.48-.49-.3-.18-.43-.33-.36-.36.12.39.19.68.9,1.1Z"/>
      <path class="cls-1" d="M175.5,131l-.75-2-.08,1.15.2-.11c.23,1.19.43.9.63.96Z"/>
      <polygon class="cls-1" points="173.79 119.35 174.31 119.51 173.37 118.47 173.79 119.35"/>
      <polygon class="cls-1" points="173.03 116.67 173.44 116.67 173.02 116.01 173.03 116.67"/>
      <path class="cls-1" d="M137.38,179.22s.06.05.09.07c-.02-.05-.05-.07-.09-.07Z"/>
      <path class="cls-1" d="M138.04,177.58l-.2-.02c.09.07.17.09.2.02Z"/>
      <path class="cls-1" d="M139.2,129.53c-.9-.42-1.89-1.05-1.8-.6l.26.45c.64-.04,1.13.03,1.55.15Z"/>
      <path class="cls-1" d="M136.03,146.29c-.04-.09-.08-.18-.13-.27-.27-.02-.52-.05-.74-.07.26.1.56.22.87.34Z"/>
      <path class="cls-1" d="M137.66,145.3l.76.98c-.15-.25-.39-.57-.76-.98Z"/>
      <path class="cls-1" d="M146.68,174.1l.38-.77c-.97.63-.42.54-.38.77Z"/>
      <path class="cls-1" d="M160.47,106.31c-.59,1.05-1.04,2.02-1.39,2.88.82-1.43,1.52-2.2,1.39-2.88Z"/>
      <path class="cls-1" d="M131.31,182.15c-.11.51-.08.66.07.55.11-.49.12-.76-.07-.55Z"/>
      <path class="cls-1" d="M158.23,111.38c.09-.11.16-.23.25-.35.15-.59.28-1.08.6-1.84-.47.7-.84,1.33-.84,2.19Z"/>
      <path class="cls-1" d="M180.61,152.61c.1-.04.22-.11.32-.14-.01-.06-.14.02-.32.14Z"/>
      <path class="cls-1" d="M205.55,141.71c-.2.16-.56.39-.89.61.18-.08.45-.26.89-.61Z"/>
      <path class="cls-1" d="M169.54,102.81c.28.94.07.09,0,0h0Z"/>
      <path class="cls-1" d="M169.31,108.62c-.08-.12-.17-.2-.26-.14.1-.01.19.04.26.14Z"/>
      <path class="cls-1" d="M158.63,117.85s-.01.03-.02.05c.14-.13.12-.11.02-.05Z"/>
      <path class="cls-1" d="M169.79,104.5c-.06-.41-.13-.88-.23-1.38.03.24.1.67.23,1.38Z"/>
      <path class="cls-1" d="M169.89,104.07c.08.35.14.63.19.9.09.05.09-.11-.19-.9Z"/>
      <path class="cls-1" d="M169.17,101.48c.15.55.28,1.1.39,1.63-.03-.23-.04-.34-.01-.31-.08-.28-.19-.67-.38-1.32Z"/>
      <path class="cls-1" d="M182.29,182.36s.03.06.05.1c.35.06.22-.02-.05-.1Z"/>
      <path class="cls-1" d="M126.2,133.34s0-.02,0-.02c-.02,0-.04-.01-.06-.02l.05.04Z"/>
      <path class="cls-1" d="M125.76,133.64c-.57-.57-.07-.48.38-.34-.63-.45-1.34-.91-2.13-1.37.39.56.97,1.13,1.75,1.71Z"/>
      <path class="cls-1" d="M138.54,179.76c-.04-.13-.04-.29,0-.47,1.05-1.44.72-.97,1.12-1.88-.45,1.02-.73,1.3-.99,1.52-.27.22-.43.3-1.37,1.38-.25.29-.44.52-.66.77l.69-.99c-.06.11.09-.06.04.05.74-1,.27-.48-.22-.05-.5.46-1.03.84-.64.09.33-.57.71-1,.87-.97-.08-.09-.15-.24-.19-.43.13-.27.42-.35.3-.13l.31-1.11h.04c-.18-.12-.33-.63-.36-.97.22-.3.22-.21.2-.04-.04.19-.03.25.06.25v-.12s.04-.2.04-.2l.07-.41.14-.81c.28-.24.38-.02.36.39-.01.21-.06.46-.13.72-.03.13-.08.27-.12.4-.04.12-.05.13-.08.2.36.02.62-.24.74-.45.13-.21.15-.44.18-.73.05-.57.12-1.37,1.08-2.75l-.39,1.49c1.07-.64,1.24-1.85,2.31-3.29-.38.29-2.37,2.79-2.06,1.03.27-.42.55-1.01.64-2,.45.17.68-.74,1.07-1.83l.57.3c.28-1.23-.06-1.26-.06-2.05.56-1.28,1.13-1.37,1.64-1.52.9-2.04-1.3,1.15-.46-1.36.9-1.64,1.12-2.95,1.57-5.16.67-1.13.28.35.62-.02l-.06-1.26c.11-.26.23-.12.28-.05.07-.46-.04-.62-.14-.79-.1-.17-.16-.44.12-1.41-.23-.26.21-.96.86-2.07-.39-.49-.89-1.1-1.51-1.69-.31-.29-.65-.58-1-.83l-.26-.18c-.07-.04-.13-.07-.2-.11-.13-.06-.26-.11-.4-.15-.25-.43.42-.16.47-.44-2.34-1.23-1.96-1.11-4.06-1.9l-1.14-1.47c.73,1.21-.95.58-2.4,0,.22.48.4.89.55,1.14l-2.06-1.23c-.16-.26.17-.28.64-.24-.16-.06-.31-.12-.43-.16-.51-.72.06-.73.76-.62.14.28.28.57.42.85.7.07,1.4.08,1.54-.29-.17-.04-.44-.18-.71-.36.19.02.32,0,.31-.09-.02-.1-.3-.15-.71-.27l.03-.89-.28.14-2.13-2.31c-2.18-.85-4.35-1.25-7.27-3.25,1.01.15.69-.54,1.11-.99.33,1.12,2.3,1.51,3.63,2.77-.7-.66-.35-.75-.09-.68l-2.91-1.6c.38-.35-.3-.73-.83-1.43-.03.3-.19.38-.44.33-.23-.04-.4-.1-.66-.26-.49-.3-1.03-.75-1.59-1,.42-.09,1.02-.05,1.58.51.02-.47-.45-.47-1.16-.65-.67-.15-1.57-.46-1.49-.81.22.17.25.26.61.33-.47-.19-.95-.56-1.15-.8-.21-.24-.12-.34.33-.17l.19.15c-.44-.43-1.17-1.03-2.19-1.74.75-.07,1.27-.28.55-.78.19.11,1.81,1.08,2.21,1.32-1.32-1.03-1.47-1.99-.48-2.89.12.37,1.07,1.04,1.64,1.65.59.61.92,1.17.66,1.36.46.13.82.27,1.29.04-.13-.06-.42-.34-.7-.61-.27-.27-.48-.54-.27-.56,1.63.9.95.49,2.43,1.26-.63-.19.14-1.3,1.15-1.2-.17.16.02,1.13-.35,1.23l2.57-.99c-.64.17-.16.95.38,1.29-.25-.23,2.17.14,2.85.06l-1.05-.32c2.83.32,2.89-1.43,5.7-1.21-.35.21-.92,1.38.5,1.6.69-.54,3.05-2.61,5.57-2.91l.46.35,1.93-.27c-1.24.8-4.67,2.44-6.53,3.05,1.05.32.27.4,1.87.46.54.34-.89.42-1.36.41l3.69.4c-.13-.68,2.87-.52,2.76-1.09l-4.06.48c-.12-.68,2.41-1.78,5.06-1.51.82.31-.65,1.16-.54,1.39.11-.05.22-.1.65-.13.38-.03.83-.05,1.27-.05.88-.01,1.72.02,1.95.12l-1.53.28c.9.15,1.62.08,2.25-.02.29-1.36.41-2.47,1.35-3.78.11-.24.22-.37.36-.53.15-.15.31-.32.45-.47.29-.31.51-.57.34-.69-1.07.65-3.36-.03-3.65-.85.12-.18,1.83-2.7,2.43-3.21.92-.71.8,1.91,1.59,1.31-.16-.1-.17-.7-.16-.94.38-.54.44.45.86-.87-.55-.46,1.07-2.6-.3-.82.31-1.33.65-1.29,1.19-2.78-.59.31-.88-1.87-.58-3.21.13.14.45-.07.6-.17,1.06-2.57,1.88-3.84,2.82-6.25.24-.16.88-1.26.96-.65,0-.1,0-.2,0-.3,0-.09-.02-.17-.02-.27,0-.2.03-.45.14-.76.89-.67-.4,1.28.52.86-.34-.23.04-1.63.24-2.82-.22-.27-.47.28-.65.97-.19.7-.29,1.47-.33,1.92-.39-.15-.65-.69-.62-1.81.02-1.1.33-2.79.89-4.76.95-3.03.65-.17.78-.84.8-1.88,1.12-3.5,1.46-5.17.33-1.64.66-3.27,1.27-4.63.1.45.21,1.03.33,1.73.18,1.72.09,2.44,0,3.02-.11.57-.23.98-.24,1.7-.15-.34-.26-.77-.36-1.27-.35.69-.64.66-1,1.63.21-.3.4-.57.58-.8-.24,1.11-.64,2.52-.89,2.75.21.03.68-1.06,1.25-2.46.51,2.03,1.18,4.5,1.44,6.45.23.17.61.86.64.13l-.31-.88c0-.81.22-.6.43-.3.2.29.39.63.26-.26.31.57.68,1.21,1.05,2.11.37.89.73,2.03.94,3.31-.16.21-.33.34-.5.52.19.03-.04-1.56-.37-2.1.12.19.2.55.25.96.05.41.09.9.11,1.23.05.73.16,1.46.66,1.77l.08-1.37c.64,1.2,1.69,2.62,1.92,4.27.39-.88-.16-.35.22-1.66-.59,1.21-1.05-4.09-1.52-2.27.12-.34.17-.65.18-.93,0-.32,0-.47-.1-1.01-.17-.94-.37-1.9-.44-3.52-.14.25-.07,1.23-.6-1.12-.07-.04-.19-.2-.26-.3-.01-.07-.02-.1-.03-.17,0,.05,0,.09.01.15-.05-.06-.05-.06,0,.05.07.62.1,1.14.05,1.41-.64-.61-1.44-3.66-1.84-4.24-.25-1.3.25.05.21-.97-.21-.32-.41-.6-.6-.85.09-.55-.04-1.74-.09-2.57-.05-.82-.02-1.26.45.01l-.74-2.87c-.25-1.62-.63-3.47-.98-4.71-.22.58-.42,1.19-.59,1.78-.53,1.09-1.26,4.63-.84,2.57l-1.58,4.85-.05-.19c-.81,2.03-1.55,4.45-2.29,6.63-.38,1.1-.76,2.17-1.22,3.23-.11.25-.25.58-.34.76l-.27.5c-.19.33-.4.66-.63.98-.22.89-.43,1.81-1.1,3.18l-.47.14c-.29,1.14-1.62,3.12-1.43,3.74-1.43.8-2.25,5.19-3.16,7.04l.45.26c-.27.65-.49,1.31-.7,2.01-.1.35-.2.72-.31,1.1-.09.35-.25.9-.23.97l.42.16c.03.39-.2.84-.44,1.19-.3-.08-.63-.17-.97-.25-.15-.04-.29-.07-.43-.1-.31-.03-.65-.06-.97-.07.09-.08.28-.1.5-.09.21.01.53.07.56.12-.05-.03-.05-.06-.13-.09l-.27-.09c-.18-.05-.36-.1-.54-.13-.36-.07-.73-.11-1.1-.12-.74-.03-1.49.03-2.23.1-1.48.14-2.93.31-4.2-.13-.65.13-1.12.05-1.56-.09.06,0,.11,0,.16-.01-.07,0-.16-.02-.26-.02-.28-.09-.57-.2-.88-.29.26.12.52.23.74.28-.5-.02-1.25,0-2,.07l-.29-.5c-.06,0-.11,0-.17,0-.71-.22-.59.2-.23.58-.38.06-.72.14-.99.24-.55-.81-1.95.16-2.71-.72-.52.38-3.73.1-4.17.93-.02-.11-.23-.18.17-.16-.67-.13-2.02-.3-2.88-.11-.23-.22-.47-.43-.73-.65-.76.23-1.38.47-1.89.72-1.7-.47-2.81-.74-1.68-1.15-1.59.28-2.15.31-2.74.35-.54.04-1.1.07-1.78.4l-.71-.44c-.54-.02-.93.09-1.32.17-.4.07-.8.1-1.57-.11-.54-.12-1.14-.22-1.8-.32.79.9,3.21,2.86,5.71,4.92,1.26,1.04,2.56,2.12,3.8,3.2.62.54,1.23,1.08,1.83,1.63.3.28.59.55.88.82.17.16.23.23.32.33l.26.28c.05-1.46,1.32,1.75,2.03,1.16.03.38.43.9-.3.62,1.98,1.26,2.44,2.55,4.18,2.98.03.38-.64,0-.56.28.18.07.73.28.81.56.08.28-.41-.04-.77-.18,1.88,1.47,2.6.96,3.24.45.7,1.06,1.2,1.39,2.21,1.54.16.47.53,1.12-.67.26.62.56,3.71,3.51,4.18,3.07.1.29.87.77,1.09.85.64.55.98.85,1.32,1.15.25.22.49.41.99.78l-.15-.26c.42-.01.7.09.91.23-.12.41-.56.91-.74,1.56l-.07-.05c-.09.13-.16.25-.24.36-.07.1-.15.28-.22.39-.13.25-.22.44-.29.61-.14.32-.17.5-.21.68-.08.36-.16.71-1.06,2.15h.51c.85.67-1.64,2.55-1.97,4.51l.51-.56c-.05,1.12-2.38,2.26-2.88,3.21-.17.18,0-.39.05-.72-1.57,2.38.46.56-.16,2.56-.45.24-.63-.77-1.19.51-.51.55-.44,4.18-1.73,5.73.4-.3.79-.59.62.38-.08.28-.39.93-.7,1.52-.33.64-.69,1.33-1.05,2.01-.71,1.4-1.37,2.95-1.15,3.51-.2.32-.33.48-.43.55-.32,1.41-1.42,4.65-.91,4.57-1.16,1.48-1.84,2.97-2.26,4.22,1.41-.99,3.2-2.4,4.35-3.24,1.16-.84,1.82-1.19,1.31-.25l4.38-2.92-.15.29c2.84-1.71,3.82-2.78,4.44-3.62.49-.19.25.13.26.22,2.9-1.51,3.14-1.74,5.01-3.86l.51.26c.46-.64,4.37-1.9,6.74-4.12,0,.06,0,.18-.17.38,1.33-1.2,3.29-2.07,4.94-2.91.41-.21.81-.42,1.16-.62.14-.07.26-.15.37-.26.21-.21.37-.56.57-1.18.01-.02.02-.04.03-.07.37.11.8.27,1.31.49-.78-.73-.71-.92-.42-.96.28-.05.82.08.41-.44.97.65,2.05,2.37.84,1.51l-.12-.22c-1.02.39,2.74,2.66,2.27,3.11,2.35,1.88,4.59,3.85,6.78,5.8,1.1.97,2.18,1.94,3.26,2.89.54.47,1.09.94,1.62,1.41.57.48,1.14.96,1.71,1.43-.15-.44-.08-.7-.12-1.04l1.94,1.63c.49.62.65,1.26-1.01-.13.34.54,1.11,1.06,1.72,1.35.62.3,1.07.37,1.09.28,1.48,1.4,1.3,1.52.71,1.28-.57-.23-1.52-.82-.99-.38l1.42,1.08-.33-.38c1.08.5,1.02.04,2.9,1.61,1.29,1.24.97,1.37,1.49,1.83.04.1.24.29.8.67l3.08,2.59-1.96-2.34c.82.3,2.54,2.1.34-.53.45.55.99,1.13,1.6,1.74-.01-1.03-.77-3.95-1.46-6.51-.7-2.58-1.34-4.82-1.34-5.38-.52-1.15-.89-2.14-1.21-3.18-.07-.22-.14-.45-.2-.68-.06-.2-.11-.4-.17-.61-.1-.42-.21-.85-.32-1.31,0,.48-.55.92-.89-.67,1.45.23-.2-3.02.39-4.54-.32,1.3-1.34-4.42-1.74-2.41-.24-1.34.46-.21.5-1.28-.66-1.49-1.04-3.23-1.4-5.08-.18-.92-.37-1.87-.56-2.82-.1-.48-.21-.96-.33-1.44l-.13-.5-.11-.33c-.2-.06-.37.35-.78-.18.13-.27.28-.48.44-.61.21-.02.41-.03.59-.03.09-.11-.07-.31-.08-.5-.02-.19.11-.36.66-.35-.14,0-.21-.06-.29-.11-.05-.06-.11-.11.07-.26,7.03-3.52,13.03-9.25,20.57-12.21-1.09.3-.5-.12.18-.58-.49.22-.23-.37-.44-.51l3.15-1.25c.15-.88,2.97-1.97,2.92-2.69l-.82.67c.77-1.39-2.54-.33-2.89-1.25-.86,1.56-4.15,1.19-5.65,3.6-.58.14.24-.52-.14-.54-.32.7-.94,1.2-2.26,1.83l.08-.17c-3.39,2.31-5.08,2.92-9.09,5.19l.54.21c-.86.48-1.12.47-1.57.62-.56,1.22,2.35-1.47,1.92-.25-1.62-.1-5.87,3.77-7.2,3.33-1.28.82.67.22-.61,1.04l-.5-.03c-.02.16-.11.37-.2.58-1.22.72-2.2.9-2.49.8.35-.19.88-.65,1.22-.9-.87.38-1.94,1.08-2.88,1.73.47,1.58.97,2.97,1.01,3.37l-.41-2.26c1.14,3.75,1.53,5.32,2.16,7.66.6,2.21,1.23,4.39,2.04,6.25l.14-.35c1.19,2.85.39,2.43,1.44,5.64l-.08-.1c.39.59.73,1.43.94,2.33-.47-.75-.08,1.67-.65.67.32.77.53,1.25.68,1.57.08.18.13.23.17.27.04.05.09.08.13.11.18.15.36.12,1.02.97-.1.09-.21.17-.32.23.51.61.73.77,1.2,2.15-.35-.68-.46-.57-.62-.56-.15.03-.35-.05-.72-.66-.13.29-.12.54,0,.9.11.35.32.79.52,1.22.38.83.74,1.72-.18.57,2.02,3.61.49-.36.99.67.2.1.55.67.89,1.41.33.72.65,1.6.68,1.91.02.07.02.11,0,.13-.49-.52-1.31-1.6-2.06-2.59-.77-1-1.41-1.88-1.89-2.25.11.1.05-.05.16.04-.32-.43-.41-.39-.58-.44-.16-.04-.4-.17-.7-.69-.04.36-.24.19-.39.09-.15-.11-.27-.16-.36.28l1.24.77c-.3-.11-.59.02-1.09-.13-.48-.13-1.21-.57-1.83-1.36.22-.02.74.13,1.03.21-.28-.53-.68-.36-1.2-1.09.17-.12.41-.06.7.1.23.11.38.21.59.36.38.29.88.7,1.1.49-.15-.34-.36-.32-.58-.4-.21-.07-.34-.16-.09-.51-.15.23-.32.26-.47.2-.08-.03-.15-.08-.22-.14-.09-.09-.18-.18-.28-.27-.57-.55-1.2-1.19-2.21-1.48l.4-.29c-.28-.13-.91-.36-1.34-.72l1.17.16c-1.54-.57-2.03-2.25-3.37-2.96,2.43,1.96.18.89.99,1.99-3.38-1.93-.93-2.36-4.42-4.9.49.32,1.52,1.6.67,1.2-.57-.59-1.3-1.42-1.53-1.93-2.28-1.72.03.66-1.09.11-.39-1.06-1.24-.7-2.32-1.35l.3-.38c-2.33-2.29-1.3.24-3.34-1.9l1.38.26-1.29-.83.59-.23c-.18-.09-.35-.17-.5-.25-.08-.04-.15-.08-.22-.12-.1-.07-.21-.13-.3-.2-.4-.26-.73-.51-1.05-.76-.64-.51-1.24-1.07-2.17-1.91-.06.03-.16.09-.26.14.25.04.15.36-.19.8-.35.44-.93.98-1.76,1.52-.63.24-.52.03-.54-.04-.01-.03-.06-.03-.26.09-.1.06-.24.15-.44.28-.14.09-.31.21-.54.36.06-.13.11-.26.18-.39.04-.07.06-.12.12-.2.07-.08.16-.16.24-.25.35-.32.86-.63,1.5-.78.07-.24.54-.71.65-.97-.77.3-1.76.92-2.64,1.52-.57.4-.99.74-1.31.95.25-.14.55-.3.73-.34l-2.12,2.17c-.49.1-.26-.22-.03-.54-.48.37-.7.78-1.42,1.29-.02-.45-.29-.76.66-1.6l-2.13,1.9c-.25-.04-1.47.39-1.24.07-1.44.65-2.81,2.72-4.71,3.59-.05.12-.19.3-.53.59-1.68.98-3.39,1.51-5.04,3.22-.45.01-1.14.18-1.17-.08-.08.15.02.34.2.51.16.18.39.32-.15.83-.81.79-.28-.53-.46-.65-.13.29-.41.8-.79,1.23-.36.42-.84.77-.81.41.35-.39.39-.28.62-.5ZM139.86,172.28c-.06.44-.08,1.36-.46,1.55-.34-.66.05-.92.46-1.55ZM134.07,143.5c.35.08.69.45,1,.95-.34-.23-.69-.53-1-.95ZM166.61,93.28s-.02,0-.02,0c-.36-2.08-.23-1.31.02,0ZM167.35,96.9c.11.14.13-.04.12-.34-.11.08-.29-.57-.48-1.44.02.57.09,1.16.36,1.78ZM188.52,191.62l-.56-.62c.87.53.71.56.56.62Z"/>
      <path class="cls-1" d="M137.47,145.41c.04.14.01.23-.02.32.18.04.24-.03.02-.32Z"/>
      <path class="cls-1" d="M146.61,174.25l.06-.03s.02-.08.01-.11l-.07.14Z"/>
      <path class="cls-1" d="M157.52,125.98c-.21.36-.38.54-.52.65.1.06.26-.08.52-.65Z"/>
      <path class="cls-1" d="M172.11,111.63l-.45-1.21c.18.59.14.83.14,1.16.1-.06.2-.33.31.05Z"/>
      <path class="cls-1" d="M172.08,123.15c.11.17.11.38.21.55l.2-.11c-.22-.77-.54-1.26-.42-.44Z"/>
      <path class="cls-1" d="M170.87,113.19c-.37.2-.03.94.28,1.79-.02-.05-.03-.1-.04-.15.62.11.19-.77-.24-1.64Z"/>
      <path class="cls-1" d="M171.21,115.18c.09.26.17.53.22.8.25.04-.04-.34-.22-.8Z"/>
      <path class="cls-1" d="M168.51,100.21c.12.85.41-.49.42.19.26-.03-.16-.99-.46-1.41-.3-.41-.51-.33.04,1.21Z"/>
      <polygon class="cls-1" points="169.76 114.24 170.16 113.8 169.64 113.42 169.76 114.24"/>
      <path class="cls-1" d="M168.21,106.98l.29,1.62c.06-.09.16.07.25.28-.23-.94-.44-2.11-.54-1.91Z"/>
      <path class="cls-1" d="M168.75,108.88c.12.5.25.95.41,1.2-.08-.27-.25-.85-.41-1.2Z"/>
      <polygon class="cls-1" points="169.11 112.38 169.1 111.94 168.88 110.96 169.11 112.38"/>
      <path class="cls-1" d="M163.04,104.95l-.54,1.81c.05.35.27.07.44-.57.07-.52.27-1.22.1-1.23Z"/>
      <path class="cls-1" d="M164.99,103.7c-.12.03-.14-.24-.23-.47l.05,1.6.18-1.13Z"/>
      <path class="cls-1" d="M163.8,107.19c.02.44-.27,2.08.14.89-.06-.32.28-1.61-.14-.89Z"/>
      <polygon class="cls-1" points="155.06 127.62 155.2 127.25 154.23 126.93 155.06 127.62"/>
      <path class="cls-1" d="M137.49,134.64c1.84.35.47-.6,2.13-.21.45-.22-1.35-.32-.9-.51-1.13.19-1.71.02-1.23.71Z"/>
      <path class="cls-1" d="M138.73,133.93c.18-.03.37-.07.58-.12-.33.05-.48.09-.58.12Z"/>
      <polygon class="cls-1" points="209.51 139.8 210.63 139.33 209.8 139.46 209.51 139.8"/>
      <path class="cls-1" d="M211.03,137.92l.59.39.28-.88c-.21.17-.62.5-.87.49Z"/>
      <path class="cls-1" d="M142.28,169.66l-.11-.14c-.22.11-.34.37-.56.88l.68-.74Z"/>
      <path class="cls-1" d="M138.24,178.75l.04-.08c-.34.33-.68.68-1.04,1.06l1-.99Z"/>
      <path class="cls-1" d="M139.67,177.53s-.04.15-.06.14c.01-.13.12.7.06-.14Z"/>
    </g>
    <g>
      <path class="cls-1" d="M63.54,179.5c.09-.74-.35-.5-.41-.62,0,1.25.52.6.41.62Z"/>
      <polygon class="cls-1" points="63.59 191.81 63.44 191.58 63.72 193.41 63.59 191.81"/>
      <path class="cls-1" d="M62.75,203.25c.79-1.03.19-4.15.59-6.17l.19-.32-.51-.96c-.09,2.48.06,5.73-.27,7.46Z"/>
      <path class="cls-1" d="M60.76,209.24c.3-.36.14,1.34.19-1.42-.04.14-.06.17-.09.25-.01.25-.04.59-.1,1.16Z"/>
      <path class="cls-1" d="M60.87,208.07c.07-1.21-.29.77,0,0h0Z"/>
      <path class="cls-1" d="M60.62,213.65l-.13-1.61c-.19.32-.33,1.73-.41,1.2.02,1.64.2,1.32.54.41Z"/>
      <path class="cls-1" d="M61.03,215.19l-.04-.83c-.08.14-.12.36.04.83Z"/>
      <path class="cls-1" d="M60.89,212.6l.09,1.76c.13-.22.36-.23-.02-.81.2.16.02-.2-.07-.95Z"/>
      <path class="cls-1" d="M61.07,211.62c.22-.88.4-2.02.53-.41.12-3.04-.41-2.63-.53.41Z"/>
      <path class="cls-1" d="M63.44,203.89l.3-1.18-.16-1.05c.08.52-.36,2.28-.13,2.22Z"/>
      <path class="cls-1" d="M59.53,223.51c.14.11.44-.5.65-.61l-.09-1.19c-.15.6-.33,1.73-.56,1.79Z"/>
      <path class="cls-1" d="M60.17,222.9l.13,1.77c.14-1.56.04-1.86-.13-1.77Z"/>
      <polygon class="cls-1" points="61.8 215.53 61.46 212.61 61.76 216.09 61.8 215.53"/>
      <path class="cls-1" d="M59.1,226.75c-.03-.11-.08-.22-.17-.32.12.15.16.32.13.52.02-.07.04-.13.04-.19Z"/>
      <path class="cls-1" d="M56.14,227.54c.65-.46-1.1-.24-.39-.6-1.16.34-2.11.83-2.96,1.27.93-.36,1.96-.58,3.34-.67Z"/>
      <path class="cls-1" d="M51.36,228.91c.46-.19.93-.43,1.44-.69-.49.19-.97.41-1.44.69Z"/>
      <path class="cls-1" d="M60.07,226.81c-.09.01-.33,0-.45.17.14.05.28.08.42.08,0-.08.02-.16.02-.25Z"/>
      <polygon class="cls-1" points="60.06 227.06 60.05 227.06 60.02 227.34 59.76 227.39 60.02 227.34 60.06 227.06"/>
      <path class="cls-1" d="M60.08,226.75s0,.04,0,.06c.04,0,.06-.02,0-.06Z"/>
      <path class="cls-1" d="M61.08,220.1c.16,1.05.26,3.22.78,1.16-.24-.76-.53.41-.78-1.16Z"/>
      <path class="cls-1" d="M60.63,226.52c.02-.09.07-.49.11-.78l.12-.93c-.12.03-.3.35-.38-.17l.08,1.01c.03.31.04.76.09.86Z"/>
      <polygon class="cls-1" points="60.73 227.03 60.63 226.52 60.57 226.85 60.73 227.03"/>
      <path class="cls-1" d="M54.56,228.53c-.74.37-1.59.6-2.55.87,1.06-.17,2.14-.39,3.16-.65.11-.17.5-.51-.61-.22Z"/>
      <path class="cls-1" d="M58.45,227.7c-.05.02-.12.05-.17.07.12,0,.2,0,.17-.07Z"/>
      <path class="cls-1" d="M42.47,231.74c.06.01.11.02.17.04,0-.03,0-.05.02-.08l-.19.04Z"/>
      <path class="cls-1" d="M55.36,228.79c.8-.11,1.24-.33,1.65-.57-.57.19-1.18.36-1.85.53-.05.07-.05.12.19.03Z"/>
      <path class="cls-1" d="M48.75,229.76c.43-.01.91-.05,1.41-.1-.43-.03-1.29-.04-1.41.1Z"/>
      <path class="cls-1" d="M57.99,227.72s.07-.03.11-.05c-.28-.03-.24,0-.11.05Z"/>
      <path class="cls-1" d="M57.99,227.72c-.39.16-.68.34-.97.51.47-.15.9-.3,1.26-.46-.1,0-.21-.03-.29-.05Z"/>
      <path class="cls-1" d="M40.24,235.12c.04-.42,2.01-1.28,3.88-1.3,1.67-.72.22-1.7-1.47-2.03-.01.18.03.34-1.71,1,.68.06,4.1-.49,2.67.23-2.33.78-1.98.34-3.18.42,1.1.24-2.85,1.44-2.16,2.02l2.02-.76c.07.1-.65.46-.04.42Z"/>
      <path class="cls-1" d="M46.07,230.98l.73-.23c-.86.14-1.5.13-2.68.11-1.18.49-1.4.7-1.45.84l3.65-.84-.24.12Z"/>
      <path class="cls-1" d="M50.11,229.93c-.47.56-2.2,1.17-1,1.36,2.16-.56,1.43-.72,2.68-1.22-3.47.96.95-.48-1.64-.1.67-.24,1.28-.41,1.86-.57-.64.1-1.26.19-1.85.25.03,0,.06,0,.09,0h.02s0,0,0,0c.16.02.22.03.04.05-.01,0-.05.02-.07.03,0,.06-.06.13-.12.2-1.03.16-.19-.07.12-.2,0-.02.03-.05.03-.07,0,0,0,0-.01,0l-3.44,1.09c.75-.12,1.68-.36,3.31-.82Z"/>
      <path class="cls-1" d="M62.64,223.25c-.05.11-.08.1-.11.11.04.24.07.33.11-.11Z"/>
      <path class="cls-1" d="M62.27,224.71c-.04-.27-.2-.5-.09-1.34.18-.73.21.02.35,0-.08-.52-.18-1.81-.5-.22l.04.26c-.25,1.44-.93,3.26-.97,3,.42-.39.72-.75,1.17-1.68Z"/>
      <path class="cls-1" d="M58.32,229l-2.86.92h1.57s-.13-.2-.13-.2c1.68-.32,1.25-.5,1.42-.72Z"/>
      <polygon class="cls-1" points="42.09 231.62 42.37 231.08 40.84 232.12 42.09 231.62"/>
      <polygon class="cls-1" points="38.32 232.6 38.36 232.18 37.42 232.66 38.32 232.6"/>
      <path class="cls-1" d="M126.96,285.02c.08,0,.15-.02.21-.03-.11,0-.17,0-.21.03Z"/>
      <path class="cls-1" d="M123.55,283.6l-.22.12c.31.01.46-.02.22-.12Z"/>
      <path class="cls-1" d="M56.2,279.32c-.46,1.25-1.14,2.64-.68,2.52l.46-.36c-.01-.9.09-1.58.22-2.16Z"/>
      <path class="cls-1" d="M78.58,284.13c-.11.07-.23.13-.34.2-.09.33-.17.65-.24.93.18-.34.38-.73.59-1.13Z"/>
      <path class="cls-1" d="M77.79,282.28l1.31-1.11c-.32.23-.74.58-1.31,1.11Z"/>
      <path class="cls-1" d="M118.67,269.32l-.92-.64c.85,1.37.67.65.92.64Z"/>
      <path class="cls-1" d="M25.27,248.71c.96.58,1.75.97,2.46,1.29-1.14-.73-2-1.49-2.46-1.29Z"/>
      <path class="cls-1" d="M126.38,289.76c.78.23,1.08.26,1.04.14-.76-.23-1.21-.32-1.04-.14Z"/>
      <path class="cls-1" d="M30.7,251.2c-.16-.11-.33-.21-.5-.32-.78-.24-1.55-.49-2.46-.89.84.54,1.85,1.08,2.96,1.21Z"/>
      <path class="cls-1" d="M88.98,220.81c-.04-.1-.08-.19-.11-.28-.06.01,0,.11.11.28Z"/>
      <path class="cls-1" d="M73.27,187.19c.21.29.53.8.83,1.27-.12-.25-.36-.63-.83-1.27Z"/>
      <path class="cls-1" d="M22.11,236.39c1.36-.36.19-.1,0,0h0Z"/>
      <path class="cls-1" d="M27.35,236.87c-.16.09-.27.18-.27.28.04-.12.14-.21.27-.28Z"/>
      <path class="cls-1" d="M39.35,251.81s.04.02.07.03c-.2-.17-.16-.14-.07-.03Z"/>
      <path class="cls-1" d="M24.22,236.08c-.51.07-1.11.17-1.77.3.3-.04.84-.13,1.77-.3Z"/>
      <path class="cls-1" d="M23.89,235.95c.35-.07.63-.13.9-.18.04-.05.04-.08-.06-.06-.05,0-.13.02-.23.06-.15.05-.35.11-.6.18Z"/>
      <path class="cls-1" d="M20.22,236.88c.78-.2,1.52-.36,2.23-.5-.28.04-.41.05-.35.01-.4.1-.96.25-1.89.49Z"/>
      <path class="cls-1" d="M131,220.16s.1-.07.15-.11c.4-.75.19-.46-.15.11Z"/>
      <path class="cls-1" d="M59.21,299.93s-.01-.02-.02-.03c0,.02-.01.05-.02.07l.04-.03Z"/>
      <path class="cls-1" d="M59.46,300.93c-.55.14-.44-.48-.29-.97-.45.38-.9.86-1.36,1.45.53.11,1.08-.05,1.65-.48Z"/>
      <path class="cls-1" d="M127.88,283.52c-.05.16-.15.26-.27.3-.7-.52-.9-.63-1.06-.72-.16-.08-.22-.02-.59-.09.81.15,1.11.47,1.37.81.26.35.39.59,1.49,1.6.17.17.4.38.73.66l-1.08-.75c.14.07-.01-.08.13,0-1.06-.78-.59-.32-.3.12.34.46.49.92-.45.43-.68-.39-1.08-.77-.88-.86-.24.02-.56.01-.94-.02-.34-.17-.22-.37.06-.23l-.88-.3-1.91-.72.04-.03c-.62-.02-1.97-.22-2.62-.33-.89-.57.54.06.35-.19l-2.22-.55c-.72-.67,1.14-.28,2.57.35-1.44-2.05-1.87-.39-5.78-2.84l2.04.65c-.98-1.23-2.63-1.6-4.68-2.96.44.45,4.02,2.94,1.62,2.33-.6-.36-1.43-.74-2.76-.99.17-.45-1.07-.83-2.58-1.41l.34-.55c-1.69-.49-1.68-.14-2.74-.26-1.78-.79-1.97-1.41-2.23-1.96-2.85-1.27,1.7,1.55-1.77.27-2.31-1.21-4.1-1.65-7.11-2.47-1.6-.89.44-.24-.09-.66l-1.68-.14c-.36-.16-.18-.26-.09-.31-.67-.16-.75-.03-.93.07-.09.05-.2.09-.41.07-.11,0-.24-.03-.41-.06-.16-.04-.5-.14-.82-.25-.4.17-1.36-.39-2.86-1.23-.68.59-1.52,1.35-2.36,2.24-.47.51-.69.75-.94,1.09-.24.33-.45.67-.6,1.02-.56.38-.1-.49-.41-.5-1.93,3.11-1.71,2.62-3.09,5.35l-1.95,1.66c1.57-1.11.47,1.07-.52,2.96.6-.35,1.12-.65,1.44-.88l-1.88,2.76c-.34.24-.29-.16-.14-.75-.1.21-.2.41-.28.56-.95.76-.83.05-.56-.83.36-.22.72-.44,1.07-.66.23-.88.4-1.74,0-1.85-.08.21-.3.57-.57.94.06-.23.07-.4-.04-.36-.12.04-.24.4-.47.92l-1.03.12.1.32-3.15,3.03c-1.46,2.84-2.4,5.59-5.36,9.55.39-1.27-.48-.75-.91-1.2,1.37-.61,2.25-3.1,4.01-4.97-.91.98-.95.56-.81.23l-2.49,3.87c-.32-.41-.92.5-1.84,1.27.67-.02.25.74-.46,1.7-.37.47-.78,1.02-1.18,1.53-.2.26-.39.51-.56.75-.16.23-.35.5-.4.62-.07-.04-.13-.11-.16-.19-.03-.08-.06-.17.03-.36.16-.37.54-.93,1.3-1.77-.55.36-.89.74-1.14,1.13-.12.2-.22.4-.31.6-.05.11-.06.18-.07.24l-.03.21c-.07.56-.38,1.43-1.02,1.69.24-.29.39-.4.42-.69-.21.48-.72,1.11-1.09,1.46-.38.35-.57.38-.39-.06l.21-.26c-.64.67-1.5,1.68-2.47,2.98-.01-.61-.06-1.14-.17-1.49-.11-.34-.27-.52-.52-.27.12-.18,1.13-1.37,1.32-1.62-1.01.67-1.89-.27-2.66-2.83.35.28,1.01-.29,1.59-.38.59-.13,1.11.08,1.28.69.07-.24.14-.48.17-.75.02-.1.05-1.02-.01-1.91-.15.59-1.16,1.41-1.17.59.97-2.17.55-1.52,1.44-4.22-.22.88-1.29-.19-1.15-1.6.15.23,1.14-.04,1.22.49l-.87-3.59c.14.89.94.22,1.31-.54-.25.35.24-3.03.2-3.97l-.37,1.47c.46-3.95-1.29-4.03-.95-7.95.2.49,1.34,1.28,1.63-.71-.51-.96-2.47-4.26-2.66-7.77l.38-.64-.18-2.69c.74,1.72,2.22,6.52,2.74,9.12.37-1.46.42-.38.55-2.61.36-.76.38,1.24.35,1.9l.58-5.15c-.69.18-.38-4-.96-3.85l.29,5.66c-.69.18-1.67-3.38-1.28-7.04.33-.91,1.14.78,1.37.72-.05-.12-.09-.4-.11-.76-.02-.39-.04-.68-.02-1.4.03-1.24.1-2.42.21-2.72l.2,2.24c.19-1.23.16-2.27.09-3.19-.88-.24-1.72-.45-2.55-.73-.41-.14-.83-.31-1.26-.51-.25-.11-.38-.19-.53-.28-.15-.09-.31-.2-.47-.32-.77-.36-2.02-1.76-2.3-1.44.99,1.23.35,3.53-.73,3.72-.26-.16-3.85-2.36-4.6-3.08-1.07-1.08,2.48-.54,1.58-1.46-.12.15-.92.07-1.24.02-.77-.48.56-.39-1.27-1.04-.56.51-3.62-1.54-1.06.19-1.83-.53-1.81-.89-3.88-1.7.49.67-2.41.64-4.24.1.17-.12-.14-.49-.29-.66-3.57-1.52-5.38-2.59-8.73-3.96-.25-.28-1.79-1.12-.99-1.11-.53-.08-1.06-.05-2.1-.46-1.78-1.36,2.34.85,1.08-.42-.14.16-.86.01-1.74-.22-.44-.12-.92-.25-1.39-.38-.23-.06-.47-.13-.69-.19-.18-.04-.36-.08-.52-.12.02.17.18.33.53.51.35.18.81.36,1.31.52,1.01.33,2.18.6,2.97.79-.16.39-.96.53-2.18.44-1.29-.12-2.59-.31-5.25-1.18-3.94-1.38-.92-.96-1.7-1.15-2.69-1.17-4.59-1.63-6.55-2.13-1.92-.48-3.83-.95-5.82-1.85.61-.13,1.36-.28,2.26-.43,2.06-.23,2.73-.12,3.22.02.47.14.75.31,1.51.32-.55.19-1.15.34-1.81.47,1.06.52,1.37.94,2.69,1.47l-1.44-.86c1.31.34,3.1.93,3.62,1.31-.23-.32-1.79-1.01-3.76-1.83,2.82-.67,6.31-1.54,8.72-1.88.47-.3,1.69-.79.95-.83l-1.33.41c-.85-.01-.36-.29.22-.56.56-.26,1.16-.51.05-.34,1-.4,2.06-.82,3.21-1.28,1.01-.38,2.13-.72,3.43-.91l.62.48c-.1-.16-1.74.05-2.4.41.99-.52,4.07-.15,5.03-1.21l-1.87.02c1.73-.74,3.8-1.92,6.09-2.29-1.16-.34-.5.19-2.26-.1,1.59.52-5.74,1.37-3.3,1.73-1.83-.4-2.91.36-5.21.2.11.18.85.19-1.06.56-.07.08-.25.2-.37.27-.09.01-.12.02-.2.03.06,0,.11-.01.17-.02-.13.06-.11.06.04,0,.47-.02.86-.01,1.03.06-.21.17-.54.34-.97.52-.62.22-1.33.45-2.02.66-1.39.43-2.75.82-3.3,1.08-1.7.32.37-.33-.78-.27-.6.27-1.16.53-1.67.78-.47-.12-1.9.05-2.86.11-.93.06-1.37.02.59-.59l-4,.96c-2.04.32-4.51.82-6.28,1.28.8.32,1.6.61,2.35.85.78.37,2.29.85,3.22,1.13.93.28,1.37.39.17.09l6.38,2.3-.12.07c1.41.59,2.92,1.16,4.42,1.72,1.29.47,2.6.94,3.93,1.42,1.89.67,3.81,1.46,5.66,2.65,1.22.37,2.48.74,4.4,1.66l.24.52c1.56.49,4.38,2.21,5.18,2.1,1.23,1.63,7.24,3.2,9.82,4.45l.29-.43c1.82.77,3.62,1.35,5.96,2.09l.03-.47c.22.05.51.13.7.19.14.04.28.09.42.15.29.12.57.28.83.44-.09.41-.19.84-.3,1.29-.02.05-.05.31-.08.53l-.08.67c-.05.45-.09.91-.12,1.37-.15-.24-.05-1.08.1-1.67-1.3,3.9.12,8.45-.88,12,.1.91,0,1.56-.16,2.18,0-.08,0-.16,0-.22,0,.09-.02.23-.03.37-.11.39-.23.79-.33,1.23.14-.37.25-.72.32-1.03-.04.69-.06,1.75-.03,2.79l-.51.4c0,.08,0,.15,0,.24-.25,1,.17.83.57.32.04.52.1,1.01.19,1.38-.84.76.06,2.72-.84,3.78.35.72-.07,5.2.73,5.81-.11.03-.19.33-.15-.23-.18,1.14-.36,2.28-.2,3.33l-.65.44.32,1.28.16.64c.05.21.1.53.15.77-.51,1.92-.83,3.21-1.14,1.05.17,2.67.17,3.53.18,4.43,0,.84.01,1.7.27,3.08l-.43.5c-.05.76.04,1.48.08,2.14.05.67.05,1.29-.18,2.17-.14.64-.26,1.4-.38,2.25,1.37-1.31,4.17-4.64,7.13-8.11.75-.87,1.51-1.76,2.27-2.66l1.16-1.34c.29-.33.58-.65.87-.98,1.09-1.21,2.17-2.35,3.19-3.32-1.69.2,2.32-1.93,1.79-2.71.45-.11,1.14-.69.66.26,1.9-2.67,3.5-3.47,4.37-5.68.45-.11-.14.79.2.65.12-.24.49-.95.83-1.1.34-.15-.13.51-.37.99,2.12-2.58,1.68-3.38,1.23-4.08,1.38-1.05,1.88-1.73,2.27-3,.58-.28,1.42-.85.16.79.78-.87,4.89-5.19,4.47-5.7.36-.17,1.09-1.21,1.23-1.5.86-.98,1.33-1.52,1.8-2.05.17-.2.34-.4.55-.64.17-.22.38-.47.64-.8l-.35.25c.03-.45.18-.8.39-1.08.27.09.6.28.95.47.18.1.36.19.56.29.22.1.35.16.7.29l-.08.05c4.19,2.31,2,.53,6.1,2.88l-.06-.54c.79-.79,3.61,2.13,6.28,2.79l-.81-.62c1.51.23,3.31,2.87,4.65,3.55.27.21-.53-.06-.97-.17,3.38,2.04.71-.39,3.45.57.37.52-.97.54.82,1.33.8.62,5.67,1.12,7.9,2.73-.45-.46-.89-.93.44-.6.98.35,2.18,1.1,3.39,1.77.3.17.61.33.91.47.17.08.33.15.5.23.23.09.46.19.68.28.89.35,1.72.59,2.32.61.37.23.52.36.55.45,2.18.66,6.81,2.4,7.15,2.05,1.5,1.2,3.46,2.11,5.27,2.78-1.28-1.95-3-4.3-4.06-5.86-1.07-1.57-1.6-2.56-.81-2.25l-3.9-6.13.24.09c-.25-.41-.48-.79-.69-1.14-.17-.28-.34-.53-.5-.76-.32-.46-.6-.83-.87-1.14-.53-.61-.97-.98-1.42-1.35-.29-.67.11-.3.21-.29-2.14-4.03-2.43-4.38-5.09-7.21l.21-.6c-.79-.73-2.81-6-5.65-9.48.07,0,.2.04.45.3-1.55-1.95-2.83-4.64-4.02-6.93-.3-.57-.59-1.12-.89-1.63-.28-.49-.65-1.08-.7-1.1-.26-.29-.64-.53-1.3-.8-.02-.02-.04-.03-.06-.05.12-.25.25-.53.41-.83.16-.3.3-.59.65-1.11-.17.19-.33.35-.46.49-.1.1-.19.18-.27.25-.16.14-.27.21-.35.24-.16.06-.19-.07-.16-.27.04-.38.36-1.13-.31-.57.99-1.34,3.22-2.97,1.95-1.32l-.28.19c.23,1.19,3.69-3.85,4.1-3.35,5.4-6.47,11.1-12.41,16.23-18.42l-1.15.22,1.81-2.08c.6-.44,1.06-.37-.23,1.11.98-.52,1.86-2.74,1.78-2.89.21-.21.38-.39.53-.54.18-.17.32-.31.44-.42.24-.22.39-.32.46-.34.14-.03-.02.32-.29.78-.14.23-.31.49-.46.74-.09.17-.18.33-.25.45-.13.25-.18.36.02.14l1.38-1.72-.45.4c1.05-1.7.75-1.85,2.96-4.4,1.61-1.68,1.45-1.02,2.07-1.71.08-.02.33-.28.94-1.08l3.63-4.2-2.69,2.29c.75-1.33,2.97-3.47-.04-.92.63-.52,1.33-1.18,2.1-1.97-1.73.16-5.84,1.16-9.42,2.05-3.57.89-6.88,1.75-7.19,1.69-1.99.92-4.06,1.42-6.63,2,.66-.04,1.2.5-1.02.96.49-1.5-4.18.43-6.19-.07,1.75.23-6.23,1.7-3.52,1.96-1.87.35-.23-.46-1.7-.42-2.13.79-4.56,1.3-7.14,1.81-1.29.25-2.61.51-3.94.78-.67.15-1.34.3-2.01.45l-1.01.25-.5.13-.24.07c-.06.2.56.32-.14.76-.41-.1-.73-.22-.95-.37-.04-.25-.07-.48-.08-.69-.14-.15-.38-.05-.61-.11-.12-.03-.22-.08-.33-.25-.16-.25-.3-.59-.44-1.1.02.32.06.8-.38.2-5.03-9.74-12.37-18.6-16.85-28.88.5,1.46-.05.62-.67-.34.32.68-.38.21-.5.46l-1.89-4.3c-1.01-.37-2.66-4.21-3.46-4.29l.87,1.19c-1.67-1.27.03,3.2-.93,3.46,1.88,1.41,1.98,5.57,4.91,7.98.25.78-.62-.41-.58.07.83.56,1.48,1.45,2.4,3.28l-.21-.14c3.11,4.81,4.06,7.11,7.22,12.72l.15-.65c.68,1.21.7,1.53.94,2.15,1.45.97-2.01-3.32-.58-2.51.15,2.07,5.13,8.29,4.85,9.92,1.12,1.81.14-.82,1.25.99l.05.64.61.26c.18.32.28.54.43.87.16.35.29.67.38.94.19.55.24.93.18,1.07-.27-.48-.87-1.27-1.21-1.77.54,1.15,1.48,2.67,2.36,4.02,1.08-.3,2.13-.6,2.97-.84.41-.11.78-.21,1.08-.3.3-.08.54-.13.59-.13l-3.13.58c1.06-.29,2.14-.58,3.25-.88.74-.19,1.49-.39,2.24-.59,1.52-.38,3.08-.77,4.63-1.15,3.1-.78,6.17-1.59,8.82-2.55l-.47-.12c4.06-1.43,3.39-.58,7.91-1.89l-.15.09c.86-.44,2.05-.85,3.31-1.13-1.09.54,2.29-.04.85.61,4.4-1.54,2.15-.89,4.93-2.43l.78.19c.47-.29.71-.48,1.12-.68.33-.18.76-.36,1.7-.64-.79.36-.48.43-.3.54.21.11.27.26-.35.63.62.06,1.03,0,1.51-.13.47-.14.99-.36,1.51-.57,1-.41,2.13-.8,1.15.05,3.98-2.04-1.12-.31.1-.84-.05-.16.56-.51,1.45-.87.87-.36,2.01-.72,2.5-.79.09-.02.17-.03.22-.03-.64.61-1.82,1.51-2.9,2.33-1.1.85-2.04,1.54-2.59,2.2.14-.15,0-.12.13-.27-.46.34-.5.53-.65.81-.13.26-.38.63-.88.89.17.28-.07.55-.23.76-.26.33-.54.71-.32,1.06l.55-.72.35-.48.63-.89c-.14.24-.24.51-.36.83-.14.33-.23.63-.57,1.19-.6,1.02-1.36,2.11-2.63,3.26.05-.3.54-1.21.9-1.82-.82.61-1.11,1.56-1.96,2.19-.21-.37.47-1.24,1.32-2.28.43-.52.89-1.08,1.32-1.64.21-.28.42-.57.58-.82.07-.15.11-.29.12-.41-.08.03-.14.07-.2.12-.03.03-.06.06-.08.09l-.13.17c-.25.34-.51.72-.72,1.04-.44.64-.75,1.03-.72.33-.19,1.92-2.62,2.89-3.72,5.48l-.25-.44c-.22.37-.61,1.19-1.13,1.78l.44-1.48c-1,2-3.05,2.9-4.18,4.68,2.8-3.34,1.07-.38,2.52-1.56-2.98,4.52-2.94,1.56-6.65,6.31.47-.67,2.19-2.15,1.54-1.04-.81.81-1.93,1.85-2.57,2.23-2.5,3.11.77-.15-.1,1.33-1.32.66-1.08,1.65-2.07,3.1l-.38-.3c-3.17,3.27,0,1.57-2.94,4.46l.6-1.75-1.24,1.74-.14-.69c-.28.49-.53.88-.76,1.23-.26.38-.38.55-.81,1.07-.73.89-1.5,1.71-2.68,2.99.05.09.13.23.2.37-.02-.36.32-.22.84.27.52.5,1.19,1.31,1.93,2.49.05.11.08.21.12.29.02.06.03.11.04.15.01.08,0,.13,0,.16-.03.06-.09.04-.12.06-.06.03,0,.2.79,1.39-.3-.19-.62-.39-.9-.7-.14-.15-.27-.34-.39-.56-.04-.08-.17-.33-.25-.52-.09-.2-.17-.42-.25-.64-.25-.11-.83-.76-1.11-.92.24.54.57,1.17.94,1.81.14.24.29.49.44.74.12.19.24.37.36.56.48.73.97,1.39,1.24,1.83-.19-.35-.42-.77-.49-1.01l2.75,3.16c.19.65-.21.29-.6-.07.49.68.98,1.06,1.67,2.09-.5-.06-.8.21-1.88-1.17l2.45,3.12c0,.31.67,1.97.28,1.61.96,1.98,3.47,4.15,4.74,6.78.14.09.37.31.74.8,1.36,2.36,2.22,4.66,4.38,7.12l.37,1.93c1.47,2.06-.55-2.57,1.89.86,1.76,2.41.08,1.26.46,2.25.06.05.16.17.19.18l.11.04c.08.03.17.07.26.12.19.1.41.26.63.46.42.39.86,1.03.64,1.22-.4-.39-.36-.52-.6-.81ZM114.66,280.21c.6.13,1.83.3,2.13.73-.85.25-1.24-.19-2.13-.73ZM74.91,287.04c.17-.45.68-.93,1.32-1.41-.34.46-.77.94-1.32,1.41ZM8.21,240.22s-.03.02-.03.03c-2.67.46-1.7.3.03-.03ZM13.02,239.25c.28-.14.12-.17-.21-.16-.05.14-.97.37-2.15.63.63-.02,1.35-.11,2.37-.47ZM141.14,213.18l-.74.68c.91-1.3.82-.99.74-.68Z"/>
      <path class="cls-1" d="M77.87,282.5c.17-.08.27-.06.37-.03.09-.23.02-.3-.37.03Z"/>
      <path class="cls-1" d="M118.84,269.44l-.05-.08c-.05-.03-.09-.04-.12-.04l.17.12Z"/>
      <path class="cls-1" d="M50.4,254.26c.51.28.77.48.93.65.07-.1-.13-.29-.93-.65Z"/>
      <path class="cls-1" d="M31.29,233.91l-1.71.55c.84-.23,1.16-.2,1.61-.23-.07-.1-.44-.18.11-.32Z"/>
      <path class="cls-1" d="M47.12,233.09c.24-.12.54-.14.77-.26l-.12-.2c-1.08.28-1.79.64-.65.46Z"/>
      <path class="cls-1" d="M33.29,235.07c.23.36,1.29-.04,2.49-.42-.07.02-.14.04-.22.05.22-.64-1.03-.14-2.28.36Z"/>
      <path class="cls-1" d="M36.06,234.57c.37-.11.75-.22,1.12-.29.09-.26-.47.07-1.12.29Z"/>
      <path class="cls-1" d="M18.03,237.74c1.05-.15-.01-.53.73-.54.29-.34-1.26.21-2.09.6-.82.39-1,.66,1.35-.06Z"/>
      <polygon class="cls-1" points="34.6 236.13 34.04 235.75 33.45 236.31 34.6 236.13"/>
      <path class="cls-1" d="M24.88,238.14l1.98-.35c-.05-.07.19-.18.48-.29-1.21.28-2.54.51-2.46.64Z"/>
      <path class="cls-1" d="M27.34,237.5c.63-.14,1.22-.3,1.55-.47-.34.09-1.06.28-1.55.47Z"/>
      <polygon class="cls-1" points="31.97 236.93 31.37 236.97 29.98 237.27 31.97 236.93"/>
      <path class="cls-1" d="M22.04,245.33l2.32.79c.27-.07-.24-.4-1.05-.65-.57-.1-1.46-.39-1.27-.14Z"/>
      <path class="cls-1" d="M18.58,242.44c.17.18-.06.21-.17.34l1.44-.08-1.27-.26Z"/>
      <path class="cls-1" d="M23.24,244.18c.16-.03.78.09,1.09.11.31.02.36-.03-.43-.33-.13.04-.56-.05-.85-.09-.28-.03-.42-.01.19.31Z"/>
      <polygon class="cls-1" points="52.89 257.11 52.37 256.91 52.06 257.88 52.89 257.11"/>
      <path class="cls-1" d="M61.23,281.68c.43-2.57-.58-.66-.11-2.98-.2-.63-.39,1.89-.55,1.26.14,1.58-.06,2.39.66,1.72Z"/>
      <path class="cls-1" d="M60.57,279.96c-.02-.25-.05-.52-.1-.81.03.46.06.67.1.81Z"/>
      <polygon class="cls-1" points="70.51 181.71 69.81 180.18 70.09 181.27 70.51 181.71"/>
      <path class="cls-1" d="M68.18,179.39l.34-.68-1.03-.54c.22.31.66.9.68,1.22Z"/>
      <path class="cls-1" d="M110.86,277.25l-.18.1c.18.25.53.41,1.25.73l-1.07-.83Z"/>
      <path class="cls-1" d="M126.96,284.34l-.09-.05c.26.32.55.65.88.99-.28-.32-.54-.63-.79-.94Z"/>
      <path class="cls-1" d="M125.15,281.51c.19.34.44.68.68,1.02l.18.26.09.13s0,0,.01,0c.01,0,.02.01.02.02-.02,0-.02-.01-.02-.02h0s-.05-.12-.05-.12c-.04-.08-.07-.16-.11-.23-.13-.3-.23-.57-.3-.77-.16-.41-.25-.58-.51-.3Z"/>
    </g>
  </g>
</svg>