<?xml version="1.0" encoding="UTF-8"?>
<svg id="Capa_2" data-name="Capa 2" xmlns="http://www.w3.org/2000/svg" viewBox="0 0 142.05 187.03">
  <defs>
    <style>
      .cls-1 {
        fill: #0511f2;
      }

      .cls-2 {
        font-family: Gorilla-Black, Gorilla;
        font-size: 60px;
        font-weight: 800;
      }

      .cls-2, .cls-3 {
        fill: #f2f2f0;
      }
    </style>
  </defs>
  <g id="Capa_1-2" data-name="Capa 1">
    <path class="cls-3" d="M138.78,161.27c0-2.46,1.32-4.61,3.28-5.8v-6.08c-1.96-1.19-3.28-3.34-3.28-5.8s1.32-4.61,3.28-5.8v-8.08c-1.96-1.19-3.28-3.34-3.28-5.8s1.32-4.61,3.28-5.8v-10.03c-1.96-1.19-3.28-3.34-3.28-5.8s1.32-4.61,3.28-5.8v-8.08c-1.96-1.19-3.28-3.34-3.28-5.8s1.32-4.61,3.28-5.8v-9.04c-1.96-1.19-3.28-3.34-3.28-5.8s1.32-4.61,3.28-5.8v-8.08c-1.96-1.19-3.28-3.34-3.28-5.8s1.32-4.61,3.28-5.8v-10.03c-1.96-1.19-3.28-3.34-3.28-5.8s1.32-4.61,3.28-5.8V0h-1.69c0,3.75-3.04,6.78-6.78,6.78s-6.78-3.04-6.78-6.78h-8.06c0,3.75-3.04,6.78-6.78,6.78s-6.78-3.04-6.78-6.78h-6.12c0,3.75-3.04,6.78-6.78,6.78s-6.78-3.04-6.78-6.78h-7.07c0,3.75-3.04,6.78-6.78,6.78s-6.78-3.04-6.78-6.78h-6.12c0,3.75-3.04,6.78-6.78,6.78s-6.78-3.04-6.78-6.78h-8.06c0,3.75-3.04,6.78-6.78,6.78s-6.78-3.04-6.78-6.78H0v12.28c3.75,0,6.78,3.04,6.78,6.78s-3.04,6.78-6.78,6.78v8.06c3.75,0,6.78,3.04,6.78,6.78s-3.04,6.78-6.78,6.78v6.12c3.75,0,6.78,3.04,6.78,6.78s-3.04,6.78-6.78,6.78v7.07c3.75,0,6.78,3.04,6.78,6.78s-3.04,6.78-6.78,6.78v6.12c3.75,0,6.78,3.04,6.78,6.78s-3.04,6.78-6.78,6.78v8.06c3.75,0,6.78,3.04,6.78,6.78s-3.04,6.78-6.78,6.78v6.12c3.75,0,6.78,3.04,6.78,6.78s-3.04,6.78-6.78,6.78v4.12c3.75,0,6.78,3.04,6.78,6.78s-3.04,6.78-6.78,6.78v20.55h3.85c0-3.75,3.04-6.78,6.78-6.78s6.78,3.04,6.78,6.78h6.12c0-3.75,3.04-6.78,6.78-6.78s6.78,3.04,6.78,6.78h8.06c0-3.75,3.04-6.78,6.78-6.78s6.78,3.04,6.78,6.78h6.12c0-3.75,3.04-6.78,6.78-6.78s6.78,3.04,6.78,6.78h7.07c0-3.75,3.04-6.78,6.78-6.78s6.78,3.04,6.78,6.78h6.12c0-3.75,3.04-6.78,6.78-6.78s6.78,3.04,6.78,6.78h8.06c0-3.75,3.04-6.78,6.78-6.78s6.78,3.04,6.78,6.78h1.69v-19.96c-1.96-1.19-3.28-3.34-3.28-5.8Z"/>
    <rect class="cls-1" x="12.09" y="14.11" width="117.88" height="155.2"/>
    <text class="cls-2" transform="translate(28.64 77.53)"><tspan x="0" y="0">20</tspan><tspan x="2.34" y="72">25</tspan></text>
  </g>
</svg>